<svg width="24" height="24" viewBox="0 0 24 24" fill="none" xmlns="http://www.w3.org/2000/svg">
<rect x="2" y="4" width="5" height="7" />
<rect x="2" y="13" width="5" height="7" />
<path fillRule="evenodd" clipRule="evenodd" d="M22 4H9V11H22V4ZM18.5 9C19.3284 9 20 8.32843 20 7.5C20 6.67157 19.3284 6 18.5 6C17.6716 6 17 6.67157 17 7.5C17 8.32843 17.6716 9 18.5 9Z" />
<path fillRule="evenodd" clipRule="evenodd" d="M22 13H9V20H22V13ZM18.5 18C19.3284 18 20 17.3284 20 16.5C20 15.6716 19.3284 15 18.5 15C17.6716 15 17 15.6716 17 16.5C17 17.3284 17.6716 18 18.5 18Z" />
</svg>
