<svg width="24" height="24" viewBox="0 0 24 24" fill="none" xmlns="http://www.w3.org/2000/svg">
<path d="M12.1923 20.875C12.1923 20.9805 12.1082 21.0625 12 21.0625C10.8341 21.0625 9.88462 20.1367 9.88462 19C9.88462 18.8945 9.96875 18.8125 10.0769 18.8125C10.1851 18.8125 10.2692 18.8945 10.2692 19C10.2692 19.9258 11.0505 20.6875 12 20.6875C12.1082 20.6875 12.1923 20.7695 12.1923 20.875ZM22 17.5C20.2212 16.0352 18.1538 13.4102 18.1538 7.75C18.1538 5.5 16.2428 3.03906 13.0577 2.58203C13.1178 2.44141 13.1538 2.28906 13.1538 2.125C13.1538 1.50391 12.637 1 12 1C11.363 1 10.8462 1.50391 10.8462 2.125C10.8462 2.28906 10.8822 2.44141 10.9423 2.58203C7.75721 3.03906 5.84615 5.5 5.84615 7.75C5.84615 13.4102 3.77885 16.0352 2 17.5C2 18.3203 2.69712 19 3.53846 19H8.92308C8.92308 20.6523 10.3053 22 12 22C13.6947 22 15.0769 20.6523 15.0769 19H20.4615C21.3029 19 22 18.3203 22 17.5Z" />
</svg>
