<svg width="24" height="24" viewBox="0 0 24 24" xmlns="http://www.w3.org/2000/svg">
<g>
<circle cx="5.04348" cy="11.7392" r="2.54348" />
<circle cx="12" cy="3.04348" r="2.54348" />
<line x1="4.6087" y1="11.424" x2="18.5217" y2="11.424" stroke-width="2"/>
<line x1="14.8282" y1="15.4284" x2="18.7848" y2="10.8632" stroke-width="2"/>
<line x1="4.02824" y1="11.699" x2="11.8543" y2="2.1338" stroke-width="2"/>
<circle cx="18.9565" cy="11.7392" r="2.54348" />
<path d="M6.15923 17.2305L6.15943 17.2304L6.16598 17.2458L7.10495 19.4596L7.70998 18.0334L7.70994 18.0334L7.71271 18.027C7.95147 17.4811 8.28697 17.0559 8.72619 16.7718C9.16486 16.4881 9.65927 16.3761 10.1647 16.3761C10.7022 16.3761 11.2948 16.5863 11.768 16.9565C11.8148 16.925 11.8647 16.8928 11.9172 16.8606C12.281 16.6375 12.8344 16.3761 13.4655 16.3761C13.9761 16.3761 14.4216 16.4615 14.8102 16.6437C14.9884 16.7272 15.1476 16.8278 15.2906 16.9418C15.3305 16.9148 15.3727 16.8876 15.4171 16.8603C15.8044 16.6224 16.3787 16.375 17.0936 16.375C18.5337 16.375 19.8006 17.4373 19.8006 18.9982V22.1958C19.8006 22.5753 19.691 22.9685 19.4302 23.2783C19.1587 23.601 18.7627 23.7841 18.3056 23.7841C17.8472 23.7841 17.4519 23.6 17.1826 23.2736C16.9256 22.962 16.8221 22.5695 16.8221 22.1958V19.3863C16.8221 19.2633 16.7834 19.2045 16.7584 19.179C16.7346 19.1547 16.6813 19.1178 16.5652 19.1178C16.4398 19.1178 16.3723 19.1577 16.3404 19.1881C16.3117 19.2156 16.2741 19.2705 16.2741 19.3863V22.1958C16.2741 22.5755 16.1642 22.9688 15.9032 23.2786C15.6314 23.6011 15.2354 23.7841 14.7782 23.7841C14.32 23.7841 13.9248 23.5999 13.6556 23.2736C13.3987 22.9621 13.295 22.5696 13.295 22.1958V19.3863C13.295 19.2626 13.2562 19.2038 13.2316 19.1787C13.2082 19.1548 13.1553 19.1178 13.0387 19.1178C12.9134 19.1178 12.8452 19.1577 12.8128 19.1886C12.7837 19.2164 12.7462 19.2713 12.7462 19.3863V22.1958C12.7462 22.5748 12.6372 22.9679 12.3767 23.278C12.1052 23.601 11.7093 23.7841 11.252 23.7841C10.7935 23.7841 10.398 23.6001 10.1288 23.2734C9.87186 22.9616 9.76877 22.5691 9.76877 22.1958V20.4495C9.73058 20.5327 9.69212 20.6164 9.65373 20.7L9.09769 21.911L8.91482 22.3092L8.86361 22.4207L8.85013 22.45L8.84667 22.4576L8.84579 22.4595L8.84557 22.46L8.84552 22.4601L8.27753 22.1993L8.84561 22.4602L8.84014 22.4715C8.69147 22.7788 8.50932 23.1138 8.23478 23.3652C7.92961 23.6447 7.55441 23.7841 7.10489 23.7841C6.68037 23.7841 6.31017 23.6557 6.00137 23.3863C5.71658 23.1378 5.52263 22.8019 5.36536 22.4613L5.36501 22.4605L3.51779 18.4454C3.17715 17.724 3.46 16.8508 4.23421 16.5067L4.23425 16.5067C4.99055 16.1707 5.82746 16.5032 6.15923 17.2305Z" stroke-width="0" />
</g>
</svg>
