<svg width="24" height="24" viewBox="0 0 24 24" xmlns="http://www.w3.org/2000/svg">
<path d="M11.625 10.25V12H10.75V13.75H9V12H7.10125C6.7425 13.0237 5.77125 13.75 4.625 13.75C3.92881 13.75 3.26113 13.4734 2.76884 12.9812C2.27656 12.4889 2 11.8212 2 11.125C2 10.4288 2.27656 9.76113 2.76884 9.26884C3.26113 8.77656 3.92881 8.5 4.625 8.5C5.77125 8.5 6.7425 9.22625 7.10125 10.25H11.625ZM4.625 10.25C4.39294 10.25 4.17038 10.3422 4.00628 10.5063C3.84219 10.6704 3.75 10.8929 3.75 11.125C3.75 11.3571 3.84219 11.5796 4.00628 11.7437C4.17038 11.9078 4.39294 12 4.625 12C4.85706 12 5.07962 11.9078 5.24372 11.7437C5.40781 11.5796 5.5 11.3571 5.5 11.125C5.5 10.8929 5.40781 10.6704 5.24372 10.5063C5.07962 10.3422 4.85706 10.25 4.625 10.25ZM16 13.75C18.3363 13.75 23 14.9225 23 17.25V19H9V17.25C9 14.9225 13.6637 13.75 16 13.75ZM16 12C15.0717 12 14.1815 11.6313 13.5251 10.9749C12.8687 10.3185 12.5 9.42826 12.5 8.5C12.5 7.57174 12.8687 6.6815 13.5251 6.02513C14.1815 5.36875 15.0717 5 16 5C16.9283 5 17.8185 5.36875 18.4749 6.02513C19.1313 6.6815 19.5 7.57174 19.5 8.5C19.5 9.42826 19.1313 10.3185 18.4749 10.9749C17.8185 11.6313 16.9283 12 16 12Z" />
</svg>
