<svg width="120" height="120" viewBox="0 0 120 120" fill="none" xmlns="http://www.w3.org/2000/svg">
<g clip-path="url(#clip0_1154_7241)">
<path d="M1.64222 101.501C6.2396 112.67 13.7357 114.995 19.006 112.67C29.1987 108.174 55.6756 103.15 82.8684 114.958C118.884 130.598 126.547 107.002 115.052 83.1348C103.558 59.2673 99.6622 35.1309 112.913 21.8331C126.164 8.53534 102.188 -9.47568 78.0299 7.5118C58.1298 21.5054 43.5254 12.7644 35.6829 8.80851C28.2916 5.08019 20.0716 1.18241 12.3703 4.22578C3.02549 7.91877 -0.656638 23.4253 13.561 41.3121C33.7086 66.6591 -8.66343 76.4657 1.64222 101.501Z" fill="#F7F9FF"/>
<mask id="mask0_1154_7241" style="mask-type:alpha" maskUnits="userSpaceOnUse" x="0" y="0" width="120" height="120">
<path d="M1.64222 101.501C6.2396 112.67 13.7357 114.995 19.006 112.67C29.1987 108.174 55.6756 103.15 82.8684 114.958C118.884 130.598 126.547 107.002 115.052 83.1348C103.558 59.2673 99.6622 35.1309 112.913 21.8331C126.164 8.53534 102.188 -9.47568 78.0299 7.5118C58.1298 21.5054 43.5254 12.7644 35.6829 8.80851C28.2916 5.08019 20.0716 1.18241 12.3703 4.22578C3.02549 7.91877 -0.656638 23.4253 13.561 41.3121C33.7086 66.6591 -8.66343 76.4657 1.64222 101.501Z" fill="url(#paint0_linear_1154_7241)"/>
</mask>
<g mask="url(#mask0_1154_7241)">
<path d="M1.64222 101.501C6.2396 112.67 13.7357 114.995 19.006 112.67C29.1987 108.174 55.6756 103.15 82.8684 114.958C118.884 130.598 126.547 107.002 115.052 83.1348C103.558 59.2673 99.6622 35.1309 112.913 21.8331C126.164 8.53534 102.188 -9.47568 78.0299 7.5118C58.1298 21.5054 43.5254 12.7644 35.6829 8.80851C28.2916 5.08019 20.0716 1.18241 12.3703 4.22578C3.02549 7.91877 -0.656638 23.4253 13.561 41.3121C33.7086 66.6591 -8.66343 76.4657 1.64222 101.501Z" fill="#EDEEF4"/>
</g>
<path fill-rule="evenodd" clip-rule="evenodd" d="M101.25 80.625L83.0532 58.0233C82.1801 56.9187 80.9039 56.25 79.56 56.25H40.4377C39.0945 56.25 37.8184 56.9187 36.9453 58.0233L18.75 80.625V93.75H101.25V81.4902V80.625Z" fill="#545F7E"/>
<rect x="34.25" y="26.75" width="51.5" height="74" rx="1.5" fill="#EDEEF4" stroke="#DEE1EA"/>
<path fill-rule="evenodd" clip-rule="evenodd" d="M101.082 108.304C100.493 110.708 98.4223 112.5 95.9597 112.5H24.0403C21.5777 112.5 19.5075 110.707 18.9188 108.304C18.8066 107.846 18.7499 107.375 18.75 106.903V80.6258H38.766C40.9769 80.6258 42.7589 82.5421 42.7589 84.8687V84.9C42.7589 87.2258 44.5613 89.1038 46.7722 89.1038H73.2278C75.4387 89.1038 77.2411 87.2085 77.2411 84.882V84.8726C77.2411 82.546 79.0231 80.625 81.234 80.625H101.25V106.904C101.25 107.387 101.191 107.856 101.082 108.304Z" fill="#818BA9"/>
<rect x="43.125" y="35.625" width="33.75" height="18.75" rx="1" fill="#DEE1EA"/>
<path fill-rule="evenodd" clip-rule="evenodd" d="M85.2738 32.7686L78.4737 35.377C78.299 35.4441 78.1087 35.4612 77.9246 35.4261C77.7406 35.3911 77.5703 35.3054 77.4333 35.1789C77.2963 35.0525 77.1982 34.8903 77.1503 34.7112C77.1024 34.5321 77.1066 34.3432 77.1625 34.1663L79.091 28.0569C76.5133 25.1592 75 21.6256 75 17.8125C75 7.97463 85.0737 0 97.501 0C109.925 0 120 7.97463 120 17.8125C120 27.6504 109.926 35.625 97.5 35.625C92.9918 35.625 88.7943 34.5758 85.2738 32.7686Z" fill="#818BA9"/>
<path fill-rule="evenodd" clip-rule="evenodd" d="M107.297 20.7643C108.9 20.7643 110.2 19.4739 110.2 17.8821C110.2 16.2904 108.9 15 107.297 15C105.693 15 104.394 16.2904 104.394 17.8821C104.394 19.4739 105.693 20.7643 107.297 20.7643ZM92.0564 20.4039H86.25L89.2031 15.3604L92.0564 20.4039ZM95.6851 15.3604H100.765V20.4039H95.6851V15.3604Z" fill="#F7F9FF"/>
<rect x="43.125" y="61.875" width="33.75" height="3.75" rx="1" fill="#DEE1EA"/>
<rect x="43.125" y="73.125" width="33.75" height="3.75" rx="1" fill="#DEE1EA"/>
</g>
<defs>
<linearGradient id="paint0_linear_1154_7241" x1="24.375" y1="81.5624" x2="107.813" y2="-9.94425e-05" gradientUnits="userSpaceOnUse">
<stop/>
<stop offset="0.504122" stop-color="white" stop-opacity="0"/>
</linearGradient>
<clipPath id="clip0_1154_7241">
<rect width="120" height="120" fill="white"/>
</clipPath>
</defs>
</svg>
