<svg width="480" height="90" viewBox="0 0 480 90" fill="none" xmlns="http://www.w3.org/2000/svg">
<path d="M127.073 51.9477C125.8 51.3323 124.884 50.6656 124.273 49.8964C123.662 49.1272 123.357 48.4605 123.357 47.999C123.357 47.7426 123.458 47.5374 123.611 47.3836C123.815 47.2297 124.018 47.1785 124.222 47.1785H125.902C126.055 47.1785 126.208 47.2297 126.258 47.281C126.36 47.3323 126.462 47.4349 126.615 47.64C127.226 48.4092 127.888 48.9733 128.651 49.3836C129.415 49.7938 130.433 49.999 131.706 49.999C133.131 49.999 134.251 49.7426 135.117 49.1785C135.982 48.6656 136.389 47.8964 136.389 46.8708C136.389 46.2041 136.186 45.6913 135.829 45.281C135.473 44.8708 134.862 44.5118 133.997 44.2041C133.131 43.8964 131.858 43.5375 130.178 43.1785C127.888 42.6657 126.258 41.9477 125.291 40.9734C124.324 39.999 123.866 38.7683 123.866 37.2811C123.866 36.3067 124.171 35.3324 124.731 34.4093C125.291 33.4862 126.157 32.7683 127.328 32.1529C128.498 31.5375 129.822 31.2811 131.451 31.2811C133.131 31.2811 134.557 31.5375 135.728 32.1016C136.898 32.6657 137.764 33.3324 138.375 34.0503C138.986 34.8196 139.291 35.435 139.291 35.9478C139.291 36.2042 139.189 36.4093 139.037 36.5632C138.884 36.717 138.68 36.8196 138.426 36.8196H136.898C136.542 36.8196 136.288 36.6657 136.084 36.358C135.626 35.8452 135.269 35.4349 134.964 35.1785C134.658 34.9221 134.2 34.6657 133.64 34.4606C133.08 34.2555 132.317 34.1529 131.451 34.1529C130.178 34.1529 129.16 34.4093 128.498 34.9734C127.786 35.5375 127.48 36.2555 127.48 37.1272C127.48 37.6913 127.633 38.1529 127.938 38.5631C128.244 38.9734 128.804 39.3324 129.618 39.6401C130.433 39.999 131.655 40.3067 133.284 40.6657C135.778 41.1785 137.56 41.9477 138.629 42.9221C139.698 43.8964 140.208 45.1785 140.208 46.7169C140.208 47.8451 139.902 48.922 139.24 49.8451C138.578 50.7682 137.611 51.4861 136.338 52.0502C135.066 52.563 133.538 52.8707 131.757 52.8707C129.873 52.8707 128.346 52.563 127.073 51.9477Z" fill="black"/>
<path d="M144.28 59.7938C144.127 59.6399 144.025 59.3835 144.025 59.1271V32.6145C144.025 32.3068 144.127 32.1016 144.28 31.9478C144.433 31.7939 144.687 31.6914 144.942 31.6914H146.622C146.927 31.6914 147.131 31.7939 147.284 31.9478C147.436 32.1016 147.538 32.358 147.538 32.6145V34.358C149.065 32.3068 151.255 31.2811 154.105 31.2811C156.905 31.2811 158.942 32.1529 160.367 33.9478C161.742 35.7426 162.505 37.999 162.556 40.717C162.607 41.0247 162.607 41.4862 162.607 42.0503C162.607 42.6657 162.607 43.1272 162.556 43.3836C162.455 46.1015 161.742 48.3579 160.367 50.1528C158.993 51.9477 156.905 52.8195 154.105 52.8195C151.255 52.8195 149.116 51.7938 147.691 49.7938V59.0758C147.691 59.3322 147.589 59.5374 147.436 59.7425C147.284 59.8963 147.029 59.9989 146.775 59.9989H144.993C144.687 60.0502 144.484 59.9476 144.28 59.7938ZM157.465 47.9477C158.331 46.7682 158.789 45.1785 158.891 43.2298C158.942 42.9734 158.942 42.5631 158.942 42.0503C158.942 36.9221 157.058 34.358 153.291 34.358C151.458 34.358 150.033 34.9734 149.116 36.2042C148.2 37.4349 147.691 38.9221 147.64 40.5631C147.589 40.8708 147.589 41.3836 147.589 42.1016C147.589 42.8708 147.589 43.3836 147.64 43.64C147.691 45.281 148.2 46.6656 149.167 47.8451C150.135 49.0246 151.509 49.64 153.291 49.64C155.225 49.7426 156.6 49.1272 157.465 47.9477Z" fill="black"/>
<path d="M168.462 50.3066C166.833 48.6143 165.968 46.3067 165.815 43.3836L165.764 42.0503L165.815 40.717C165.968 37.8452 166.884 35.5375 168.462 33.8452C170.091 32.1529 172.23 31.2811 174.928 31.2811C177.83 31.2811 180.07 32.2042 181.699 34.1016C183.277 35.9478 184.091 38.5119 184.091 41.6913V42.4093C184.091 42.6657 183.99 42.8708 183.837 43.0759C183.684 43.2298 183.43 43.3323 183.175 43.3323H169.43V43.6913C169.531 45.4349 170.04 46.9221 171.008 48.1015C171.975 49.3323 173.299 49.9477 174.877 49.9477C176.099 49.9477 177.117 49.6913 177.931 49.2297C178.695 48.7169 179.306 48.2041 179.713 47.6913C179.968 47.3836 180.12 47.1785 180.273 47.1272C180.426 47.0759 180.63 47.0246 180.935 47.0246H182.666C182.92 47.0246 183.124 47.0759 183.277 47.2297C183.43 47.3836 183.531 47.5374 183.531 47.7426C183.531 48.3067 183.175 49.0246 182.462 49.8451C181.75 50.6656 180.731 51.3836 179.408 51.9989C178.084 52.6143 176.608 52.922 174.928 52.922C172.23 52.8707 170.091 51.9989 168.462 50.3066ZM180.477 40.6144V40.5118C180.477 38.6657 179.968 37.1272 178.95 35.9478C177.931 34.7683 176.608 34.2042 174.928 34.2042C173.197 34.2042 171.873 34.7683 170.906 35.9478C169.939 37.1272 169.43 38.6144 169.43 40.5118V40.6144H180.477Z" fill="black"/>
<path d="M189.742 50.4604C188.164 48.8707 187.298 46.6143 187.247 43.6912L187.196 42.1015L187.247 40.5117C187.349 37.5887 188.164 35.3323 189.742 33.7426C191.32 32.1528 193.509 31.3323 196.36 31.3323C198.244 31.3323 199.873 31.6913 201.196 32.358C202.52 33.0246 203.487 33.8964 204.149 34.8708C204.811 35.8964 205.167 36.8707 205.218 37.8964C205.269 38.1528 205.167 38.3579 204.964 38.5118C204.76 38.7169 204.556 38.7682 204.302 38.7682H202.52C202.265 38.7682 202.062 38.7169 201.909 38.563C201.756 38.4605 201.655 38.2041 201.502 37.8964C201.044 36.6143 200.382 35.6913 199.516 35.1272C198.702 34.5631 197.633 34.3067 196.36 34.3067C194.68 34.3067 193.356 34.8195 192.389 35.8451C191.422 36.8707 190.862 38.4605 190.811 40.6143L190.76 41.9989L190.811 43.3835C190.913 45.5374 191.422 47.0758 192.389 48.1527C193.356 49.1784 194.68 49.6912 196.36 49.6912C197.633 49.6912 198.702 49.4348 199.516 48.8707C200.331 48.3066 200.993 47.3835 201.451 46.1015C201.604 45.7938 201.706 45.5374 201.858 45.4348C202.011 45.3322 202.164 45.2297 202.469 45.2297H204.2C204.455 45.2297 204.658 45.3322 204.862 45.4861C205.066 45.6912 205.167 45.8963 205.116 46.1015C205.066 47.0758 204.709 48.1014 204.047 49.0758C203.385 50.1014 202.418 50.9219 201.095 51.6399C199.771 52.3578 198.193 52.6655 196.258 52.6655C193.56 52.8706 191.32 52.0501 189.742 50.4604Z" fill="black"/>
<path d="M210.92 45.486V34.7682H207.764C207.509 34.7682 207.306 34.6656 207.153 34.5118C207 34.3579 206.898 34.1528 206.898 33.8964V32.6143C206.898 32.3579 207 32.1528 207.153 31.9477C207.306 31.7938 207.509 31.6913 207.764 31.6913H210.92V25.0246C210.92 24.7682 211.022 24.5631 211.175 24.358C211.328 24.2041 211.531 24.1016 211.786 24.1016H213.517C213.771 24.1016 213.975 24.2041 214.178 24.358C214.331 24.5118 214.433 24.7682 214.433 25.0246V31.6913H219.371C219.626 31.6913 219.829 31.7938 220.033 31.9477C220.186 32.1015 220.288 32.3579 220.288 32.6143V33.8964C220.288 34.1528 220.186 34.3579 220.033 34.5118C219.88 34.6656 219.626 34.7682 219.371 34.7682H214.433V45.1783C214.433 46.5117 214.637 47.5373 215.095 48.2553C215.553 48.9732 216.266 49.2809 217.335 49.2809H219.778C220.033 49.2809 220.237 49.3834 220.389 49.5373C220.542 49.6911 220.644 49.9475 220.644 50.204V51.5373C220.644 51.7937 220.542 51.9988 220.389 52.2039C220.237 52.3578 220.033 52.4604 219.778 52.4604H217.08C212.957 52.4604 210.92 50.1527 210.92 45.486Z" fill="black"/>
<path d="M224.004 52.204C223.851 52.0501 223.749 51.7937 223.749 51.5373V32.6656C223.749 32.4092 223.851 32.1528 224.004 31.999C224.156 31.7938 224.411 31.7426 224.665 31.7426H226.345C226.651 31.7426 226.855 31.8451 227.058 31.999C227.211 32.1528 227.313 32.4092 227.313 32.7169V34.4605C228.382 32.6656 230.215 31.7426 232.811 31.7426H234.338C234.644 31.7426 234.847 31.8451 235 31.999C235.153 32.1528 235.255 32.4092 235.255 32.6656V34.1015C235.255 34.3579 235.153 34.5631 235 34.7682C234.847 34.922 234.593 35.0246 234.338 35.0246H232.047C230.571 35.0246 229.451 35.4348 228.636 36.3066C227.822 37.1784 227.364 38.3066 227.364 39.7938V51.5886C227.364 51.845 227.262 52.0501 227.109 52.2552C226.905 52.4091 226.702 52.5117 226.447 52.5117H224.665C224.36 52.4604 224.156 52.3578 224.004 52.204Z" fill="black"/>
<path d="M239.073 50.4091C237.495 48.7681 236.68 46.563 236.578 43.7938L236.528 42.1015L236.578 40.4092C236.68 37.6913 237.546 35.4861 239.124 33.7938C240.702 32.1528 242.942 31.3323 245.793 31.3323C248.644 31.3323 250.884 32.1528 252.462 33.7938C254.04 35.4349 254.906 37.64 255.008 40.4092C255.058 40.9733 255.109 41.5887 255.109 42.1015C255.109 42.6656 255.058 43.2297 255.008 43.7938C254.906 46.5117 254.04 48.7168 252.513 50.4091C250.935 52.0501 248.695 52.8706 245.793 52.8706C242.891 52.8706 240.651 52.0501 239.073 50.4091ZM249.815 48.2553C250.782 47.1784 251.342 45.6399 251.444 43.5887C251.495 43.3322 251.495 42.8194 251.495 42.0502C251.495 41.281 251.495 40.8194 251.444 40.5117C251.342 38.5118 250.833 36.922 249.815 35.8451C248.848 34.7682 247.473 34.2041 245.793 34.2041C244.113 34.2041 242.738 34.7682 241.771 35.8451C240.804 36.922 240.244 38.4605 240.142 40.5117L240.091 42.0502L240.142 43.5887C240.244 45.5886 240.753 47.1784 241.771 48.2553C242.738 49.3322 244.113 49.8963 245.793 49.8963C247.524 49.845 248.848 49.3322 249.815 48.2553Z" fill="black"/>
<path d="M269.229 50.4604C267.702 48.8707 266.939 46.6143 266.837 43.6912L266.786 42.1015L266.837 40.5117C266.939 37.5887 267.702 35.3323 269.229 33.7426C270.757 32.1528 272.844 31.3323 275.593 31.3323C277.324 31.3323 278.8 31.64 280.073 32.2554C281.295 32.8708 282.211 33.6913 282.822 34.6656C283.433 35.64 283.739 36.6656 283.789 37.6913C283.84 37.9477 283.739 38.1528 283.535 38.3066C283.331 38.4605 283.128 38.563 282.924 38.563H282.364C282.109 38.563 281.906 38.5118 281.804 38.3579C281.702 38.2554 281.549 37.9989 281.448 37.6913C280.938 36.2041 280.175 35.1784 279.208 34.5631C278.24 33.9477 277.069 33.64 275.593 33.64C273.709 33.64 272.182 34.2041 271.062 35.3836C269.942 36.5631 269.331 38.3066 269.28 40.7169L269.229 42.1015L269.28 43.4861C269.382 45.8963 269.942 47.6399 271.062 48.8194C272.182 49.9989 273.709 50.563 275.593 50.563C277.069 50.563 278.24 50.2553 279.208 49.6399C280.175 49.0245 280.888 47.9476 281.448 46.5117C281.6 46.204 281.702 45.9476 281.804 45.845C281.906 45.7425 282.109 45.6399 282.364 45.6399H282.924C283.179 45.6399 283.382 45.7425 283.535 45.8963C283.739 46.0502 283.789 46.2553 283.789 46.5117C283.739 47.5373 283.382 48.563 282.822 49.5373C282.211 50.5117 281.295 51.3322 280.073 51.9476C278.851 52.563 277.375 52.8706 275.593 52.8706C272.844 52.8706 270.757 52.0501 269.229 50.4604Z" fill="black"/>
<path d="M288.524 52.2039C288.371 52.0501 288.27 51.845 288.27 51.5886V24.9734C288.27 24.7169 288.371 24.5118 288.524 24.358C288.677 24.2041 288.881 24.1016 289.135 24.1016H289.797C290.051 24.1016 290.255 24.2041 290.408 24.358C290.561 24.5118 290.662 24.7169 290.662 24.9734V51.5886C290.662 51.845 290.561 52.0501 290.408 52.2039C290.255 52.3578 290.051 52.4604 289.797 52.4604H289.186C288.931 52.4604 288.677 52.3578 288.524 52.2039Z" fill="black"/>
<path d="M297.84 50.3066C296.313 48.6143 295.498 46.4092 295.447 43.7426L295.397 42.0503L295.447 40.358C295.549 37.6913 296.313 35.4862 297.84 33.7939C299.367 32.1016 301.506 31.2811 304.255 31.2811C307.004 31.2811 309.142 32.1016 310.669 33.7939C312.197 35.4862 313.011 37.6913 313.062 40.358C313.113 40.6144 313.113 41.1785 313.113 42.0503C313.113 42.9221 313.113 43.4862 313.062 43.7426C312.96 46.4092 312.197 48.6143 310.669 50.3066C309.142 51.9989 307.004 52.8195 304.255 52.8195C301.506 52.8707 299.367 51.9989 297.84 50.3066ZM308.786 48.7169C309.957 47.4862 310.567 45.7939 310.618 43.5375C310.669 43.2811 310.669 42.7682 310.669 42.0503C310.669 41.3323 310.669 40.8195 310.618 40.5631C310.517 38.3067 309.906 36.6144 308.786 35.3837C307.615 34.1529 306.138 33.5888 304.255 33.5888C302.371 33.5888 300.844 34.2042 299.724 35.3837C298.553 36.6144 297.942 38.3067 297.891 40.5631L297.84 42.0503L297.891 43.5375C297.993 45.7939 298.604 47.4862 299.724 48.7169C300.895 49.9477 302.371 50.5118 304.255 50.5118C306.138 50.5631 307.615 49.9477 308.786 48.7169Z" fill="black"/>
<path d="M319.528 50.4092C318.204 48.7682 317.491 46.6144 317.491 43.9477V32.5632C317.491 32.3068 317.593 32.1016 317.746 31.9478C317.898 31.7939 318.102 31.6914 318.357 31.6914H319.018C319.273 31.6914 319.477 31.7939 319.629 31.9478C319.782 32.1016 319.884 32.3068 319.884 32.5632V43.6913C319.884 48.2554 321.869 50.5118 325.789 50.5118C327.673 50.5118 329.2 49.8964 330.32 48.7169C331.44 47.4861 332 45.8451 332 43.6913V32.5632C332 32.3068 332.102 32.1016 332.255 31.9478C332.408 31.7939 332.611 31.6914 332.866 31.6914H333.528C333.782 31.6914 333.986 31.7939 334.138 31.9478C334.291 32.1016 334.393 32.3068 334.393 32.5632V51.5887C334.393 51.8451 334.291 52.0502 334.138 52.2041C333.986 52.3579 333.782 52.4605 333.528 52.4605H332.968C332.713 52.4605 332.509 52.3579 332.357 52.2041C332.204 52.0502 332.102 51.8451 332.102 51.5887V49.6913C331.288 50.7169 330.422 51.5374 329.404 52.0502C328.386 52.563 327.062 52.8707 325.484 52.8707C322.888 52.8707 320.902 52.0502 319.528 50.4092Z" fill="black"/>
<path d="M341.266 50.0501C339.892 48.1527 339.179 45.8963 339.128 43.1784L339.077 42.0502L339.128 40.922C339.23 38.2553 339.943 35.9476 341.266 34.0502C342.641 32.1528 344.728 31.2297 347.579 31.2297C350.481 31.2297 352.67 32.3066 354.248 34.4092V24.9734C354.248 24.7169 354.35 24.5118 354.503 24.358C354.655 24.2041 354.859 24.1016 355.113 24.1016H355.775C356.03 24.1016 356.234 24.2041 356.386 24.358C356.539 24.5118 356.641 24.7169 356.641 24.9734V51.5886C356.641 51.845 356.539 52.0501 356.386 52.204C356.234 52.3578 356.03 52.4604 355.775 52.4604H355.113C354.859 52.4604 354.655 52.3578 354.503 52.204C354.35 52.0501 354.248 51.845 354.248 51.5886V49.6911C352.721 51.7937 350.481 52.8706 347.579 52.8706C344.728 52.8706 342.641 51.9475 341.266 50.0501ZM352.517 48.4604C353.586 47.0758 354.146 45.4348 354.197 43.5373C354.248 43.2809 354.248 42.7681 354.248 41.9989C354.248 41.2297 354.248 40.7168 354.197 40.4604C354.146 39.3322 353.943 38.2553 353.434 37.2297C352.975 36.2041 352.263 35.3835 351.295 34.7169C350.328 34.0502 349.157 33.7425 347.783 33.7425C345.644 33.7425 344.066 34.4092 343.099 35.7938C342.132 37.1784 341.572 38.922 341.47 41.0758L341.419 42.204C341.419 44.6655 341.877 46.7168 342.844 48.3065C343.812 49.8963 345.441 50.6655 347.783 50.6655C349.921 50.5629 351.499 49.845 352.517 48.4604Z" fill="black"/>
<path d="M51.7801 90L0 60.3409V43.9773L51.7801 73.6364L103.56 44.4886V59.8295L51.7801 90Z" fill="#3575CF"/>
<path d="M51.7801 63.4091L9.13767 38.8636L0 43.9773V19.4318L51.7801 49.0909L59.9025 43.9773L17.7677 19.4318L30.4589 12.2727L51.7801 0L94.4226 25.0568L103.56 19.4318V44.4886L51.7801 14.3182L42.6425 19.4318L84.7773 43.9773" fill="white"/>
<path d="M51.7801 63.4091L9.13767 38.8636L0 43.9773V19.4318L51.7801 49.0909L59.9025 43.9773L17.7677 19.4318L30.4589 12.2727L51.7801 0L94.4226 25.0568L103.56 19.4318V44.4886L51.7801 14.3182L42.6425 19.4318L84.7773 43.9773" fill="#3575CF"/>
<path d="M387.464 29.5795C389.876 29.5795 391.992 30.0544 393.811 31.0041C395.653 31.9538 397.068 33.3122 398.054 35.0791C399.063 36.824 399.567 38.856 399.567 41.1751C399.567 43.4943 399.063 45.5263 398.054 47.2711C397.068 48.9939 395.653 50.3302 393.811 51.2799C391.992 52.2297 389.876 52.7045 387.464 52.7045H379.439V29.5795H387.464ZM387.299 48.762C389.711 48.762 391.575 48.0994 392.891 46.7742C394.206 45.449 394.864 43.5826 394.864 41.1751C394.864 38.7677 394.206 36.8903 392.891 35.543C391.575 34.1736 389.711 33.4889 387.299 33.4889H384.043V48.762H387.299Z" fill="#3575CF"/>
<path d="M416.959 52.9364C414.81 52.9364 412.837 52.4284 411.039 51.4124C409.241 50.3964 407.816 48.9939 406.763 47.2049C405.711 45.3937 405.185 43.3507 405.185 41.0757C405.185 38.8229 405.711 36.8019 406.763 35.0129C407.816 33.2018 409.241 31.7882 411.039 30.7722C412.837 29.7562 414.81 29.2482 416.959 29.2482C419.13 29.2482 421.103 29.7562 422.879 30.7722C424.677 31.7882 426.092 33.2018 427.122 35.0129C428.175 36.8019 428.701 38.8229 428.701 41.0757C428.701 43.3507 428.175 45.3937 427.122 47.2049C426.092 48.9939 424.677 50.3964 422.879 51.4124C421.081 52.4284 419.108 52.9364 416.959 52.9364ZM416.959 48.7951C418.341 48.7951 419.557 48.4859 420.61 47.8675C421.662 47.227 422.485 46.3214 423.077 45.1508C423.669 43.9802 423.965 42.6218 423.965 41.0757C423.965 39.5297 423.669 38.1824 423.077 37.0338C422.485 35.8632 421.662 34.9687 420.61 34.3503C419.557 33.7318 418.341 33.4226 416.959 33.4226C415.578 33.4226 414.35 33.7318 413.276 34.3503C412.223 34.9687 411.401 35.8632 410.809 37.0338C410.217 38.1824 409.921 39.5297 409.921 41.0757C409.921 42.6218 410.217 43.9802 410.809 45.1508C411.401 46.3214 412.223 47.227 413.276 47.8675C414.35 48.4859 415.578 48.7951 416.959 48.7951Z" fill="#3575CF"/>
<path d="M434.297 41.1089C434.297 38.8339 434.801 36.8019 435.81 35.0129C436.841 33.2018 438.233 31.7992 439.987 30.8053C441.763 29.7893 443.747 29.2813 445.94 29.2813C448.506 29.2813 450.753 29.9439 452.683 31.2691C454.612 32.5944 455.961 34.4276 456.728 36.7688H451.433C450.906 35.6644 450.161 34.8362 449.196 34.284C448.253 33.7318 447.157 33.4558 445.907 33.4558C444.57 33.4558 443.375 33.776 442.322 34.4165C441.292 35.035 440.48 35.9184 439.888 37.067C439.318 38.2155 439.033 39.5628 439.033 41.1089C439.033 42.6329 439.318 43.9802 439.888 45.1508C440.48 46.2993 441.292 47.1938 442.322 47.8343C443.375 48.4528 444.57 48.762 445.907 48.762C447.157 48.762 448.253 48.4859 449.196 47.9337C450.161 47.3595 450.906 46.5202 451.433 45.4158H456.728C455.961 47.7791 454.612 49.6234 452.683 50.9486C450.775 52.2517 448.527 52.9033 445.94 52.9033C443.747 52.9033 441.763 52.4063 439.987 51.4124C438.233 50.3964 436.841 48.9939 435.81 47.2049C434.801 45.4158 434.297 43.3838 434.297 41.1089Z" fill="#3575CF"/>
<path d="M471.876 52.9364C470.276 52.9364 468.828 52.6603 467.535 52.1082C466.263 51.556 465.254 50.7609 464.509 49.7228C463.763 48.6847 463.38 47.4589 463.358 46.0453H468.291C468.357 46.995 468.686 47.746 469.278 48.2982C469.892 48.8504 470.725 49.1264 471.778 49.1264C472.852 49.1264 473.696 48.8724 474.31 48.3644C474.924 47.8344 475.231 47.1497 475.231 46.3104C475.231 45.6257 475.023 45.0624 474.606 44.6207C474.189 44.179 473.663 43.8366 473.027 43.5937C472.413 43.3286 471.558 43.0415 470.462 42.7323C468.971 42.2905 467.754 41.8598 466.811 41.4402C465.89 40.9984 465.09 40.3469 464.41 39.4855C463.752 38.602 463.424 37.4314 463.424 35.9737C463.424 34.6043 463.763 33.4116 464.443 32.3956C465.123 31.3796 466.077 30.6065 467.305 30.0765C468.532 29.5243 469.936 29.2482 471.514 29.2482C473.882 29.2482 475.801 29.8335 477.27 31.0041C478.761 32.1526 479.583 33.765 479.737 35.8411H474.672C474.628 35.046 474.288 34.3944 473.652 33.8864C473.038 33.3564 472.216 33.0913 471.186 33.0913C470.287 33.0913 469.563 33.3232 469.015 33.7871C468.489 34.2509 468.225 34.9245 468.225 35.808C468.225 36.4264 468.423 36.9455 468.817 37.3651C469.234 37.7627 469.738 38.094 470.33 38.3591C470.944 38.602 471.799 38.8891 472.896 39.2204C474.387 39.6622 475.604 40.1039 476.547 40.5457C477.489 40.9874 478.301 41.65 478.98 42.5335C479.66 43.417 480 44.5765 480 46.0122C480 47.249 479.682 48.3976 479.046 49.4577C478.41 50.5179 477.478 51.3683 476.251 52.0088C475.023 52.6272 473.565 52.9364 471.876 52.9364Z" fill="#3575CF"/>
</svg>
