<?xml version="1.0" encoding="UTF-8"?>
<svg id="Logos" xmlns="http://www.w3.org/2000/svg" viewBox="0 0 274 334">
  <defs>
    <style>
      .cls-1 {
        fill: #1f7a78;
      }

      .cls-2 {
        fill: #043736;
      }

      .cls-3 {
        fill: #005b5b;
      }
    </style>
  </defs>
  <path class="cls-1" d="M125.78,329.6L4.95,234.22c-6.42-5.07-6.43-14.8-.01-19.88l120.83-95.61c6.59-5.21,15.89-5.21,22.47,0l120.83,95.61c6.41,5.08,6.41,14.81-.01,19.88l-120.83,95.39c-6.58,5.19-15.86,5.19-22.44,0Z"/>
  <path class="cls-2" d="M268.86,214.21s-.01,0-.02-.01l-122.78-96.83c-5.88-4.63-13.14-7.16-20.62-7.17l-115.83-.2c-5.07-.02-7.62-.92-8.71-4.39-.57,1.56-.78,3.06-.78,4.23,0,2.33.57,6.7,5,10.2,0,0,0,0,0,0l122.78,96.93c5.88,4.65,13.16,7.17,20.66,7.18l116.12.11c4.85.05,7.33.99,8.4,4.38.57-1.56.78-3.06.78-4.23,0-2.34-.57-6.71-5.01-10.21Z"/>
  <path class="cls-1" d="M269.06,100.02L148.24,4.41c-6.59-5.21-15.89-5.21-22.47,0L4.94,100.02c-6.42,5.08-6.41,14.81.01,19.88l119.88,94.64c.14.16.31.33.53.51,6.77,5.44,10.23,6.76,14.77,8.01,4.54,1.25,8.44,1.1,10.05,1.1h6.03c-4.04-.54-5.79-3-6.37-4.98-.75-2.55.49-5.28,2.88-7.45l116.33-91.83c6.42-5.07,6.43-14.8.01-19.88Z"/>
  <path class="cls-3" d="M152.72,211.73l56.47-44.58-63.12-49.78c-5.88-4.63-13.14-7.16-20.62-7.17l-115.83-.2c-5.07-.02-7.63-.95-8.72-4.41-.82,2.38-.88,4.15-.65,6,.23,1.91,1.05,4.13,2.3,5.82.67.91,1.52,1.79,2.59,2.64,0,0,0,0,0,0l119.7,94.49s0,0,0,0c0,0,2.85,2.46,5.51,4.17,3.06,1.97,6.4,3.47,9.9,4.38.06.02.11.03.17.04,2.65.67,5.39,1.02,8.17,1.03h7.64c-4.04-.54-5.79-2.99-6.37-4.97-.75-2.55.49-5.28,2.88-7.45Z"/>
</svg>