<?xml version="1.0" encoding="UTF-8"?>
<svg id="Logos" xmlns="http://www.w3.org/2000/svg" viewBox="0 0 501 192">
  <defs>
    <style>
      .cls-1 {
        fill: #1f7a78;
      }

      .cls-2 {
        fill: #012121;
      }

      .cls-3 {
        fill: #043736;
      }

      .cls-4 {
        fill: #005b5b;
      }
    </style>
  </defs>
  <g>
    <path class="cls-2" d="M206.68,69.46h9.65c0,4.14,4.39,7.18,9.41,7.18,5.81,0,9.34-3.11,9.34-6.88,0-4.96-3.06-6.14-10.36-8.21-6.75-1.92-16.48-4.37-16.48-15.39,0-8.58,8.24-15.47,18.59-15.47s18.36,6.88,18.36,15.54h-9.73c0-4.14-3.69-6.96-8.71-6.96-5.41,0-8.79,2.74-8.79,6.22s2.2,5.25,9.34,7.33c7.14,2,17.5,4.37,17.5,16.5,0,9.18-8.55,16.06-19.14,16.06s-18.99-7.18-18.99-15.91Z"/>
    <path class="cls-2" d="M254.84,43.39h9.08v8.27h.3c2.51-5.69,8.86-9.38,15.87-9.38,11.07,0,19.64,9.6,19.64,21.56s-8.56,21.56-19.64,21.56c-6.72,0-12.11-2.88-15.65-9.01h-.29v14.93l-9.3,7.12v-55.05ZM290.2,63.84c0-7.82-5.68-12.85-12.55-12.85s-12.4,5.02-12.4,12.85,5.61,12.85,12.4,12.85,12.55-5.02,12.55-12.85Z"/>
    <path class="cls-2" d="M305.22,63.61c0-11.96,9.74-21.34,22.22-21.34s22.22,9.38,22.22,21.63c0,.66-.07,1.85-.29,2.95h-34.25c1.03,5.61,6.28,9.82,12.48,9.82,4.87,0,8.93-2.29,10.85-6.42h10.19c-2.88,8.78-11,15.06-21.19,15.06-12.48,0-22.22-9.74-22.22-21.7ZM339.4,59.85c-.81-4.87-5.61-8.93-12.11-8.93s-11.37,3.76-12.03,8.93h24.14Z"/>
    <path class="cls-2" d="M355.78,63.61c0-11.96,9.74-21.63,21.78-21.63,6.2,0,11.88,2.66,15.8,6.79l-5.98,6.13c-2.29-2.58-5.68-4.21-9.82-4.21-6.94,0-12.47,5.61-12.47,12.92s5.54,12.99,12.47,12.99c3.91,0,7.01-1.4,9.3-3.69l5.98,6.05c-3.91,3.99-9.3,6.35-15.28,6.35-12.03,0-21.78-9.67-21.78-21.7Z"/>
    <path class="cls-2" d="M401.02,39.14l9.23-7.29v11.53h9.95v8.64h-9.95v23.55h9.73v8.64h-18.96v-45.07Z"/>
    <path class="cls-2" d="M429.35,43.39h24.58v8.64h-15.28v32.19h-9.3v-40.82Z"/>
    <path class="cls-2" d="M457.09,63.84c0-12.03,9.74-21.48,21.7-21.48s21.7,9.45,21.7,21.48-9.75,21.48-21.7,21.48-21.7-9.74-21.7-21.48ZM491.35,63.84c0-7.9-5.61-12.77-12.55-12.77s-12.4,4.87-12.4,12.77,5.54,12.77,12.4,12.77,12.55-5.17,12.55-12.77Z"/>
    <path class="cls-2" d="M272.87,140.55c0-11.89,9.67-21.34,21.56-21.34s21.55,9.45,21.55,21.34-9.67,21.33-21.55,21.33-21.56-9.67-21.56-21.33ZM310.15,140.55c0-9.23-7.09-15.8-15.72-15.8s-15.8,6.57-15.8,15.8,7.09,15.8,15.8,15.8,15.72-6.87,15.72-15.8Z"/>
    <path class="cls-2" d="M323.7,145.2v-25.03h5.83v25.32c0,7.09,4.8,10.85,11.07,10.85s11.15-3.84,11.15-10.85v-25.32h5.76v25.03c0,10.33-7.31,16.68-16.9,16.68s-16.91-6.35-16.91-16.68Z"/>
    <path class="cls-2" d="M365.42,140.48c0-11.96,8.93-21.41,20.45-21.41,8.19,0,14.47,4.65,17.35,11.15h.29v-21.48h5.76v51.97h-5.68v-10.04h-.22c-3.32,7.46-9.97,11.22-17.5,11.22-11.52,0-20.45-9.67-20.45-21.41ZM402.7,140.48c0-9.01-6.72-15.95-15.58-15.95s-15.72,6.94-15.72,15.95,6.72,15.87,15.72,15.87,15.58-7.01,15.58-15.87Z"/>
    <polygon class="cls-2" points="260.88 155.24 260.88 105.94 255.12 110.48 255.12 160.78 267.9 160.78 267.9 155.24 260.88 155.24"/>
    <path class="cls-2" d="M228.49,156.28c-11.81,0-21.11-9.3-21.11-21.7s9.3-21.33,21.11-21.33c6.13,0,11.42,2.28,15.36,5.96l3.52-3.73c-4.85-4.8-11.61-7.84-18.88-7.84-15.06,0-27.17,11.89-27.17,26.94s12.11,27.31,27.17,27.31c7.31,0,14.03-3.03,18.9-7.9l-3.62-3.84c-3.84,3.77-9.15,6.13-15.28,6.13Z"/>
  </g>
  <g>
    <path class="cls-1" d="M72.85,189.63L3.27,134.7c-3.7-2.92-3.7-8.52,0-11.45l69.57-55.05c3.79-3,9.15-3,12.94,0l69.57,55.05c3.69,2.92,3.69,8.53,0,11.45l-69.57,54.92c-3.79,2.99-9.13,2.99-12.92,0Z"/>
    <path class="cls-3" d="M155.24,123.18s0,0-.01,0l-70.69-55.75c-3.38-2.67-7.56-4.12-11.87-4.13l-66.69-.11c-2.92,0-4.39-.53-5.02-2.53-.33.9-.45,1.76-.45,2.44,0,1.34.33,3.86,2.88,5.87,0,0,0,0,0,0l70.7,55.81c3.39,2.67,7.58,4.13,11.89,4.14l66.86.06c2.79.03,4.22.57,4.83,2.52.33-.9.45-1.76.45-2.44,0-1.34-.33-3.86-2.88-5.88Z"/>
    <path class="cls-1" d="M155.35,57.43L85.78,2.38c-3.79-3-9.15-3-12.94,0L3.27,57.43c-3.69,2.92-3.69,8.53,0,11.45l69.03,54.49c.08.09.18.19.31.3,3.9,3.13,5.89,3.9,8.5,4.61,2.61.72,4.86.63,5.79.63h3.47c-2.32-.31-3.33-1.73-3.67-2.87-.43-1.47.28-3.04,1.66-4.29l66.98-52.88c3.7-2.92,3.7-8.52,0-11.45Z"/>
    <path class="cls-4" d="M88.36,121.76l32.52-25.67-36.35-28.67c-3.38-2.67-7.56-4.12-11.87-4.13l-66.69-.11c-2.92,0-4.39-.54-5.02-2.54-.47,1.37-.5,2.39-.38,3.45.13,1.1.6,2.38,1.32,3.35.39.52.87,1.03,1.49,1.52,0,0,0,0,0,0l68.92,54.41s0,0,0,0c0,0,1.64,1.42,3.17,2.4,1.76,1.14,3.68,2,5.7,2.52.03,0,.06.01.1.02,1.53.39,3.11.59,4.7.59h4.4c-2.32-.31-3.33-1.72-3.67-2.86-.43-1.47.28-3.04,1.66-4.29Z"/>
  </g>
</svg>