<svg width="704" height="704" viewBox="0 0 704 704" fill="none" xmlns="http://www.w3.org/2000/svg">
<rect width="704" height="704" rx="352" fill="white"/>
<path d="M352 528L148 412V348L352 464L556 350V410L352 528Z" fill="#3575CF"/>
<path d="M352 424L184 328L148 348V316V252L352 368L384 348L218 252L268 224L352 176L520 274L556 252V350L352 232L316 252L482 348" fill="white"/>
<path d="M352 424L184 328L148 348V316V252L352 368L384 348L218 252L268 224L352 176L520 274L556 252V350L352 232L316 252L482 348" fill="#3575CF"/>
</svg>
