<svg width="120" height="22" viewBox="0 0 120 22" fill="none" xmlns="http://www.w3.org/2000/svg">
<path d="M0 11C0 4.92487 4.92487 0 11 0H109C115.075 0 120 4.92487 120 11V11C120 17.0751 115.075 22 109 22H11C4.92486 22 0 17.0751 0 11V11Z" fill="#DCDAF9"/>
<path d="M8.52841 7.40625V6.27273H15.2827V7.40625H12.5597V15H11.2472V7.40625H8.52841ZM18.5447 15.1321C17.8999 15.1321 17.3445 14.9943 16.8786 14.7188C16.4155 14.4403 16.0575 14.0497 15.8047 13.5469C15.5547 13.0412 15.4297 12.4489 15.4297 11.7699C15.4297 11.0994 15.5547 10.5085 15.8047 9.99716C16.0575 9.4858 16.4098 9.08665 16.8615 8.79972C17.3161 8.51278 17.8473 8.36932 18.4553 8.36932C18.8246 8.36932 19.1825 8.4304 19.5291 8.55256C19.8757 8.67472 20.1868 8.86648 20.4624 9.12784C20.7379 9.3892 20.9553 9.72869 21.1143 10.1463C21.2734 10.5611 21.353 11.0653 21.353 11.6591V12.1108H16.1499V11.1562H20.1044C20.1044 10.821 20.0362 10.5241 19.8999 10.2656C19.7635 10.0043 19.5717 9.7983 19.3246 9.64773C19.0803 9.49716 18.7933 9.42188 18.4638 9.42188C18.1058 9.42188 17.7933 9.50994 17.5263 9.68608C17.2621 9.85937 17.0575 10.0866 16.9126 10.3679C16.7706 10.6463 16.6996 10.9489 16.6996 11.2756V12.0213C16.6996 12.4588 16.7763 12.831 16.9297 13.1378C17.0859 13.4446 17.3033 13.679 17.5817 13.8409C17.8601 14 18.1854 14.0795 18.5575 14.0795C18.799 14.0795 19.0192 14.0455 19.218 13.9773C19.4169 13.9062 19.5888 13.8011 19.7337 13.6619C19.8786 13.5227 19.9893 13.3509 20.0661 13.1463L21.272 13.3636C21.1754 13.7187 21.0021 14.0298 20.7521 14.2969C20.505 14.5611 20.1939 14.767 19.8189 14.9148C19.4467 15.0597 19.022 15.1321 18.5447 15.1321ZM25.5238 15.1321C24.8903 15.1321 24.3448 14.9886 23.8874 14.7017C23.4329 14.4119 23.0835 14.0128 22.8391 13.5043C22.5948 12.9957 22.4727 12.4134 22.4727 11.7571C22.4727 11.0923 22.5977 10.5057 22.8477 9.99716C23.0977 9.4858 23.4499 9.08665 23.9045 8.79972C24.359 8.51278 24.8945 8.36932 25.511 8.36932C26.0082 8.36932 26.4513 8.46165 26.8406 8.64631C27.2298 8.82812 27.5437 9.08381 27.7823 9.41335C28.0238 9.7429 28.1673 10.1278 28.2127 10.5682H26.9727C26.9045 10.2614 26.7482 9.99716 26.5039 9.77557C26.2624 9.55398 25.9386 9.44318 25.5323 9.44318C25.1772 9.44318 24.8661 9.53693 24.5991 9.72443C24.3349 9.90909 24.1289 10.1733 23.9812 10.517C23.8335 10.858 23.7596 11.2614 23.7596 11.7273C23.7596 12.2045 23.832 12.6165 23.9769 12.9631C24.1218 13.3097 24.3263 13.5781 24.5906 13.7685C24.8576 13.9588 25.1715 14.054 25.5323 14.054C25.7738 14.054 25.9925 14.0099 26.1886 13.9219C26.3874 13.831 26.5536 13.7017 26.6871 13.5341C26.8235 13.3665 26.9187 13.1648 26.9727 12.929H28.2127C28.1673 13.3523 28.0295 13.7301 27.7994 14.0625C27.5692 14.3949 27.261 14.6562 26.8746 14.8466C26.4911 15.0369 26.0408 15.1321 25.5238 15.1321ZM30.8494 11.1136V15H29.5753V6.27273H30.8324V9.51989H30.9134C31.0668 9.16761 31.3011 8.88778 31.6165 8.6804C31.9318 8.47301 32.3438 8.36932 32.8523 8.36932C33.3011 8.36932 33.6932 8.46165 34.0284 8.64631C34.3665 8.83097 34.6278 9.10653 34.8125 9.47301C35 9.83665 35.0938 10.2912 35.0938 10.8366V15H33.8196V10.9901C33.8196 10.5099 33.696 10.1378 33.4489 9.87358C33.2017 9.60653 32.858 9.47301 32.4176 9.47301C32.1165 9.47301 31.8466 9.53693 31.608 9.66477C31.3722 9.79261 31.1861 9.98011 31.0497 10.2273C30.9162 10.4716 30.8494 10.767 30.8494 11.1136ZM38.0682 11.1136V15H36.794V8.45455H38.017V9.51989H38.098C38.2486 9.1733 38.4844 8.89489 38.8054 8.68466C39.1293 8.47443 39.5369 8.36932 40.0284 8.36932C40.4744 8.36932 40.8651 8.46307 41.2003 8.65057C41.5355 8.83523 41.7955 9.1108 41.9801 9.47727C42.1648 9.84375 42.2571 10.2969 42.2571 10.8366V15H40.983V10.9901C40.983 10.5156 40.8594 10.1449 40.6122 9.87784C40.3651 9.60795 40.0256 9.47301 39.5938 9.47301C39.2983 9.47301 39.0355 9.53693 38.8054 9.66477C38.5781 9.79261 38.3977 9.98011 38.2642 10.2273C38.1335 10.4716 38.0682 10.767 38.0682 11.1136ZM43.9659 15V8.45455H45.2401V15H43.9659ZM44.6094 7.4446C44.3878 7.4446 44.1974 7.37074 44.0384 7.22301C43.8821 7.07244 43.804 6.89347 43.804 6.68608C43.804 6.47585 43.8821 6.29687 44.0384 6.14915C44.1974 5.99858 44.3878 5.9233 44.6094 5.9233C44.831 5.9233 45.0199 5.99858 45.1761 6.14915C45.3352 6.29687 45.4148 6.47585 45.4148 6.68608C45.4148 6.89347 45.3352 7.07244 45.1761 7.22301C45.0199 7.37074 44.831 7.4446 44.6094 7.4446ZM49.7113 15.1321C49.0778 15.1321 48.5323 14.9886 48.0749 14.7017C47.6204 14.4119 47.271 14.0128 47.0266 13.5043C46.7823 12.9957 46.6602 12.4134 46.6602 11.7571C46.6602 11.0923 46.7852 10.5057 47.0352 9.99716C47.2852 9.4858 47.6374 9.08665 48.092 8.79972C48.5465 8.51278 49.082 8.36932 49.6985 8.36932C50.1957 8.36932 50.6388 8.46165 51.0281 8.64631C51.4173 8.82812 51.7312 9.08381 51.9698 9.41335C52.2113 9.7429 52.3548 10.1278 52.4002 10.5682H51.1602C51.092 10.2614 50.9357 9.99716 50.6914 9.77557C50.4499 9.55398 50.1261 9.44318 49.7198 9.44318C49.3647 9.44318 49.0536 9.53693 48.7866 9.72443C48.5224 9.90909 48.3164 10.1733 48.1687 10.517C48.021 10.858 47.9471 11.2614 47.9471 11.7273C47.9471 12.2045 48.0195 12.6165 48.1644 12.9631C48.3093 13.3097 48.5138 13.5781 48.7781 13.7685C49.0451 13.9588 49.359 14.054 49.7198 14.054C49.9613 14.054 50.18 14.0099 50.3761 13.9219C50.5749 13.831 50.7411 13.7017 50.8746 13.5341C51.011 13.3665 51.1062 13.1648 51.1602 12.929H52.4002C52.3548 13.3523 52.217 13.7301 51.9869 14.0625C51.7567 14.3949 51.4485 14.6562 51.0621 14.8466C50.6786 15.0369 50.2283 15.1321 49.7113 15.1321ZM55.6676 15.1449C55.2528 15.1449 54.8778 15.0682 54.5426 14.9148C54.2074 14.7585 53.9418 14.5327 53.7457 14.2372C53.5526 13.9418 53.456 13.5795 53.456 13.1506C53.456 12.7812 53.527 12.4773 53.669 12.2386C53.8111 12 54.0028 11.8111 54.2443 11.6719C54.4858 11.5327 54.7557 11.4276 55.054 11.3565C55.3523 11.2855 55.6563 11.2315 55.9659 11.1946C56.358 11.1491 56.6761 11.1122 56.9205 11.0838C57.1648 11.0526 57.3423 11.0028 57.4531 10.9347C57.5639 10.8665 57.6193 10.7557 57.6193 10.6023V10.5724C57.6193 10.2003 57.5142 9.91193 57.304 9.70739C57.0966 9.50284 56.7869 9.40057 56.375 9.40057C55.946 9.40057 55.608 9.49574 55.3608 9.68608C55.1165 9.87358 54.9474 10.0824 54.8537 10.3125L53.6562 10.0398C53.7983 9.64205 54.0057 9.32102 54.2784 9.0767C54.554 8.82955 54.8707 8.65057 55.2287 8.53977C55.5866 8.42614 55.9631 8.36932 56.358 8.36932C56.6193 8.36932 56.8963 8.40057 57.1889 8.46307C57.4844 8.52273 57.7599 8.63352 58.0156 8.79545C58.2741 8.95739 58.4858 9.18892 58.6506 9.49006C58.8153 9.78835 58.8977 10.1761 58.8977 10.6534V15H57.6534V14.1051H57.6023C57.5199 14.2699 57.3963 14.4318 57.2315 14.5909C57.0668 14.75 56.8551 14.8821 56.5966 14.9872C56.3381 15.0923 56.0284 15.1449 55.6676 15.1449ZM55.9446 14.1222C56.2969 14.1222 56.598 14.0526 56.848 13.9134C57.1009 13.7741 57.2926 13.5923 57.4233 13.3679C57.5568 13.1406 57.6236 12.8977 57.6236 12.6392V11.7955C57.5781 11.8409 57.4901 11.8835 57.3594 11.9233C57.2315 11.9602 57.0852 11.9929 56.9205 12.0213C56.7557 12.0469 56.5952 12.071 56.4389 12.0938C56.2827 12.1136 56.152 12.1307 56.0469 12.1449C55.7997 12.1761 55.5739 12.2287 55.3693 12.3026C55.1676 12.3764 55.0057 12.483 54.8835 12.6222C54.7642 12.7585 54.7045 12.9403 54.7045 13.1676C54.7045 13.483 54.821 13.7216 55.054 13.8835C55.2869 14.0426 55.5838 14.1222 55.9446 14.1222ZM61.869 6.27273V15H60.5948V6.27273H61.869ZM66.8612 15V6.27273H69.9719C70.6509 6.27273 71.2134 6.39631 71.6594 6.64347C72.1055 6.89062 72.4393 7.22869 72.6609 7.65767C72.8825 8.08381 72.9933 8.56392 72.9933 9.09801C72.9933 9.63494 72.881 10.1179 72.6566 10.5469C72.435 10.973 72.0998 11.3111 71.6509 11.5611C71.2049 11.8082 70.6438 11.9318 69.9677 11.9318H67.8285V10.8153H69.8484C70.2773 10.8153 70.6254 10.7415 70.8924 10.5938C71.1594 10.4432 71.3555 10.2386 71.4805 9.98011C71.6055 9.72159 71.668 9.42756 71.668 9.09801C71.668 8.76847 71.6055 8.47585 71.4805 8.22017C71.3555 7.96449 71.158 7.7642 70.8881 7.61932C70.6211 7.47443 70.2688 7.40199 69.8313 7.40199H68.1779V15H66.8612ZM74.4347 15V8.45455H75.6662V9.49432H75.7344C75.8537 9.14205 76.0639 8.86506 76.3651 8.66335C76.669 8.45881 77.0128 8.35653 77.3963 8.35653C77.4759 8.35653 77.5696 8.35937 77.6776 8.36506C77.7884 8.37074 77.875 8.37784 77.9375 8.38636V9.60511C77.8864 9.59091 77.7955 9.57528 77.6648 9.55824C77.5341 9.53835 77.4034 9.52841 77.2727 9.52841C76.9716 9.52841 76.7031 9.59233 76.4673 9.72017C76.2344 9.84517 76.0497 10.0199 75.9134 10.2443C75.777 10.4659 75.7088 10.7187 75.7088 11.0028V15H74.4347ZM81.6268 15.1321C80.9819 15.1321 80.4265 14.9943 79.9606 14.7188C79.4975 14.4403 79.1396 14.0497 78.8867 13.5469C78.6367 13.0412 78.5117 12.4489 78.5117 11.7699C78.5117 11.0994 78.6367 10.5085 78.8867 9.99716C79.1396 9.4858 79.4918 9.08665 79.9435 8.79972C80.3981 8.51278 80.9293 8.36932 81.5373 8.36932C81.9066 8.36932 82.2646 8.4304 82.6112 8.55256C82.9577 8.67472 83.2688 8.86648 83.5444 9.12784C83.82 9.3892 84.0373 9.72869 84.1964 10.1463C84.3555 10.5611 84.435 11.0653 84.435 11.6591V12.1108H79.2319V11.1562H83.1864C83.1864 10.821 83.1183 10.5241 82.9819 10.2656C82.8455 10.0043 82.6538 9.7983 82.4066 9.64773C82.1623 9.49716 81.8754 9.42188 81.5458 9.42188C81.1879 9.42188 80.8754 9.50994 80.6083 9.68608C80.3441 9.85937 80.1396 10.0866 79.9947 10.3679C79.8526 10.6463 79.7816 10.9489 79.7816 11.2756V12.0213C79.7816 12.4588 79.8583 12.831 80.0117 13.1378C80.168 13.4446 80.3853 13.679 80.6637 13.8409C80.9421 14 81.2674 14.0795 81.6396 14.0795C81.881 14.0795 82.1012 14.0455 82.3001 13.9773C82.4989 13.9062 82.6708 13.8011 82.8157 13.6619C82.9606 13.5227 83.0714 13.3509 83.1481 13.1463L84.354 13.3636C84.2575 13.7187 84.0842 14.0298 83.8342 14.2969C83.587 14.5611 83.2759 14.767 82.9009 14.9148C82.5288 15.0597 82.104 15.1321 81.6268 15.1321ZM91.2607 8.45455L88.8871 15H87.5234L85.1456 8.45455H86.5135L88.1712 13.4915H88.2393L89.8928 8.45455H91.2607ZM92.4581 15V8.45455H93.7322V15H92.4581ZM93.1016 7.4446C92.88 7.4446 92.6896 7.37074 92.5305 7.22301C92.3743 7.07244 92.2962 6.89347 92.2962 6.68608C92.2962 6.47585 92.3743 6.29687 92.5305 6.14915C92.6896 5.99858 92.88 5.9233 93.1016 5.9233C93.3232 5.9233 93.5121 5.99858 93.6683 6.14915C93.8274 6.29687 93.907 6.47585 93.907 6.68608C93.907 6.89347 93.8274 7.07244 93.6683 7.22301C93.5121 7.37074 93.3232 7.4446 93.1016 7.4446ZM98.2674 15.1321C97.6225 15.1321 97.0671 14.9943 96.6012 14.7188C96.1381 14.4403 95.7802 14.0497 95.5273 13.5469C95.2773 13.0412 95.1523 12.4489 95.1523 11.7699C95.1523 11.0994 95.2773 10.5085 95.5273 9.99716C95.7802 9.4858 96.1325 9.08665 96.5842 8.79972C97.0387 8.51278 97.57 8.36932 98.1779 8.36932C98.5472 8.36932 98.9052 8.4304 99.2518 8.55256C99.5984 8.67472 99.9094 8.86648 100.185 9.12784C100.461 9.3892 100.678 9.72869 100.837 10.1463C100.996 10.5611 101.076 11.0653 101.076 11.6591V12.1108H95.8725V11.1562H99.8271C99.8271 10.821 99.7589 10.5241 99.6225 10.2656C99.4862 10.0043 99.2944 9.7983 99.0472 9.64773C98.8029 9.49716 98.516 9.42188 98.1864 9.42188C97.8285 9.42188 97.516 9.50994 97.2489 9.68608C96.9847 9.85937 96.7802 10.0866 96.6353 10.3679C96.4933 10.6463 96.4222 10.9489 96.4222 11.2756V12.0213C96.4222 12.4588 96.4989 12.831 96.6523 13.1378C96.8086 13.4446 97.0259 13.679 97.3043 13.8409C97.5827 14 97.908 14.0795 98.2802 14.0795C98.5217 14.0795 98.7418 14.0455 98.9407 13.9773C99.1396 13.9062 99.3114 13.8011 99.4563 13.6619C99.6012 13.5227 99.712 13.3509 99.7887 13.1463L100.995 13.3636C100.898 13.7187 100.725 14.0298 100.475 14.2969C100.228 14.5611 99.9165 14.767 99.5415 14.9148C99.1694 15.0597 98.7447 15.1321 98.2674 15.1321ZM103.897 15L101.971 8.45455H103.287L104.57 13.2614H104.634L105.921 8.45455H107.238L108.516 13.2401H108.58L109.854 8.45455H111.171L109.249 15H107.949L106.62 10.2741H106.522L105.192 15H103.897Z" fill="#111626"/>
</svg>
