<svg width="422" height="363" viewBox="0 0 422 363" fill="none" xmlns="http://www.w3.org/2000/svg">
<g clip-path="url(#clip0_1831_12983)">
<path d="M210.708 347.113L18.8145 237.997V177.795L210.708 286.911L402.602 179.676V236.116L210.708 347.113Z" fill="black"/>
<path d="M210.708 249.284L52.678 158.982L18.8145 177.795V147.694V87.4918L210.708 196.608L240.809 177.795L84.6603 87.4918L131.693 61.1534L210.708 16.002L368.738 108.186L402.602 87.4918V179.676L210.708 68.6787L176.845 87.4918L332.993 177.795" fill="white"/>
<path d="M210.708 249.284L52.678 158.982L18.8145 177.795V147.694V87.4918L210.708 196.608L240.809 177.795L84.6603 87.4918L131.693 61.1534L210.708 16.002L368.738 108.186L402.602 87.4918V179.676L210.708 68.6787L176.845 87.4918L332.993 177.795" fill="black"/>
</g>
<defs>
<clipPath id="clip0_1831_12983">
<rect width="421.414" height="361.212" fill="white" transform="translate(0 0.952148)"/>
</clipPath>
</defs>
</svg>
