<?xml version="1.0" encoding="UTF-8"?>
<svg xmlns="http://www.w3.org/2000/svg" xmlns:xlink="http://www.w3.org/1999/xlink" width="13pt" height="14pt" viewBox="0 0 13 14" version="1.1">
<g id="surface1">
<path style=" stroke:none;fill-rule:nonzero;fill:rgb(0%,0%,0%);fill-opacity:1;" d="M 9.285156 12.25 L 9.285156 13.34375 C 9.285156 13.707031 8.972656 14 8.589844 14 L 0.695312 14 C 0.3125 14 0 13.707031 0 13.34375 L 0 3.28125 C 0 2.917969 0.3125 2.625 0.695312 2.625 L 2.785156 2.625 L 2.785156 10.71875 C 2.785156 11.5625 3.515625 12.25 4.410156 12.25 Z M 9.285156 2.84375 L 9.285156 0 L 4.410156 0 C 4.027344 0 3.714844 0.292969 3.714844 0.65625 L 3.714844 10.71875 C 3.714844 11.082031 4.027344 11.375 4.410156 11.375 L 12.304688 11.375 C 12.6875 11.375 13 11.082031 13 10.71875 L 13 3.5 L 9.980469 3.5 C 9.597656 3.5 9.285156 3.203125 9.285156 2.84375 Z M 12.796875 1.996094 L 10.882812 0.191406 C 10.75 0.0703125 10.574219 0 10.390625 0 L 10.214844 0 L 10.214844 2.625 L 13 2.625 L 13 2.460938 C 13 2.285156 12.925781 2.117188 12.796875 1.996094 Z M 12.796875 1.996094 "/>
</g>
</svg>
