<svg xmlns="http://www.w3.org/2000/svg" width="24" height="24" fill="none"><path fill="#37687C" d="M9.011 13c0-.276.225-.504.498-.461.49.077.961.268 1.377.561a3.53 3.53 0 0 1 1.243 1.6c.255.65.323 1.367.192 2.058a3.628 3.628 0 0 1-.924 1.823 3.324 3.324 0 0 1-1.727.976 3.21 3.21 0 0 1-1.95-.203 3.422 3.422 0 0 1-1.515-1.313 3.705 3.705 0 0 1-.569-1.979.5.5 0 0 1 .5-.499h.126a.5.5 0 0 1 .5.5l.005.175c.029.408.157.803.373 1.144.247.39.6.695 1.01.875.411.18.864.226 1.3.135a2.216 2.216 0 0 0 1.152-.65c.315-.332.529-.756.616-1.216.087-.46.042-.938-.128-1.372a2.353 2.353 0 0 0-.829-1.066 2.19 2.19 0 0 0-.754-.342c-.269-.064-.496-.282-.496-.559V13Z"/><path fill="#37687C" d="M11.261 8.344c0-.63-.237-1.234-.659-1.68a2.192 2.192 0 0 0-1.59-.695c-.597 0-1.17.25-1.592.696a2.443 2.443 0 0 0-.659 1.679v.499c0 .252-.15.476-.375.56a2.853 2.853 0 0 0-1.49 1.297 3.11 3.11 0 0 0-.347 2.005 3.01 3.01 0 0 0 .96 1.769c.508.451 1.15.698 1.814.698h.063a.5.5 0 0 1 .5.5v.187a.5.5 0 0 1-.5.5h-.062c-.93.001-1.83-.345-2.54-.977a4.214 4.214 0 0 1-1.344-2.476 4.353 4.353 0 0 1 .485-2.808 4.032 4.032 0 0 1 1.62-1.604.171.171 0 0 0 .091-.15c0-.945.356-1.851.989-2.519A3.288 3.288 0 0 1 9.01 4.781c.895 0 1.754.376 2.387 1.044s.988 1.574.988 2.519v7.219a.5.5 0 0 1-.5.5h-.125a.5.5 0 0 1-.5-.5v-7.22Z"/><path fill="#37687C" d="M8.449 9.234c0-.164.133-.296.297-.296h.53c.165 0 .298.132.298.296 0 .709-.267 1.388-.742 1.89a2.471 2.471 0 0 1-1.664.779l-.126.003a.281.281 0 0 1-.28-.281V11c0-.155.125-.281.28-.281.373 0 .731-.157.995-.435.263-.279.412-.656.412-1.05ZM17.256 6.522a.453.453 0 0 0-.44.465c0 .257.197.464.44.465.243 0 .44-.208.44-.465a.454.454 0 0 0-.44-.465Zm0-1.187c.864 0 1.566.74 1.566 1.652 0 .912-.702 1.652-1.566 1.652-.864 0-1.565-.74-1.565-1.652 0-.912.7-1.652 1.565-1.652ZM17.256 18.036a.453.453 0 0 1-.44-.465c0-.257.197-.465.44-.465s.44.208.44.465a.454.454 0 0 1-.44.465Zm0 1.187c.864 0 1.566-.74 1.566-1.652 0-.913-.702-1.652-1.566-1.652-.864 0-1.565.74-1.565 1.652 0 .912.7 1.652 1.565 1.652ZM19.051 11.814a.453.453 0 0 0-.44.465c0 .257.197.464.44.465.244 0 .44-.208.441-.465a.454.454 0 0 0-.44-.465Zm0-1.187c.865 0 1.566.74 1.566 1.652 0 .912-.701 1.652-1.566 1.652-.864 0-1.564-.74-1.565-1.652 0-.912.701-1.652 1.565-1.652Z"/><path fill="#37687C" d="M13.747 12.185a.5.5 0 0 1 .5-.5h3.102a.5.5 0 0 1 .5.5v.188a.5.5 0 0 1-.5.5h-3.102a.5.5 0 0 1-.5-.5v-.188ZM13.747 9.01a.5.5 0 0 1 .5-.5h.555a.5.5 0 0 0 .363-.156l.621-.656a.5.5 0 0 1 .726 0l.035.037.072.076a.5.5 0 0 1 0 .688l-.97 1.024a.548.548 0 0 1-.398.174h-1.004a.5.5 0 0 1-.5-.5V9.01ZM13.747 15.548a.5.5 0 0 0 .5.5h.555a.5.5 0 0 1 .363.156l.621.656a.5.5 0 0 0 .726 0l.035-.037.072-.076a.5.5 0 0 0 0-.688l-.97-1.025a.548.548 0 0 0-.398-.174h-1.004a.5.5 0 0 0-.5.5v.188Z"/></svg>