<svg xmlns="http://www.w3.org/2000/svg" width="20" height="20" fill="none"><path fill="#3575CF" fill-rule="evenodd" d="M18.192 4.296 14.914 1.52a1.71 1.71 0 0 0-1.006-.268l-.03.002H6.121l-.027-.002a1.694 1.694 0 0 0-1.007.278L1.806 4.31 5.08 7.082c.298.187.648.277 1 .256l.038-.003h7.764l.03.002c.356.017.708-.076 1.007-.268l3.274-2.773ZM15.67 8.07l3.848-3.26a.697.697 0 0 0 .28-.516.696.696 0 0 0-.284-.515L15.667.519a2.96 2.96 0 0 0-1.82-.515H6.15a2.944 2.944 0 0 0-1.82.53L.48 3.795a.693.693 0 0 0-.28.516.693.693 0 0 0 .28.516l3.849 3.26a2.944 2.944 0 0 0 1.824.5h7.696a2.96 2.96 0 0 0 1.82-.516Z" clip-rule="evenodd"/><mask id="a" fill="#fff"><path d="M.163 7.66a.405.405 0 0 1 .435.056l3.754 3.487a2.772 2.772 0 0 0 1.686.464h7.712a2.778 2.778 0 0 0 1.686-.464l3.9-3.654a.405.405 0 0 1 .428-.05c.07.031.128.082.17.146.042.064.064.84.065.916v-.937V8.467l-.017.058a.036.036 0 0 1 0 .02v.021l-.036.08-.015.029c0 .026-.032.053-.05.079l-.014.018-.097.073v.015a.097.097 0 0 1-.018.017c-.026.03-.058.06-.09.089l-1.175.99-2.682 2.27a1.918 1.918 0 0 1-.164.126h-.018l-.032.017a1.907 1.907 0 0 1-.173.097h-.024l-.19.083-.057.02-.173.056h-.053c-.067.02-.138.038-.208.053h-.015c-.1.02-.206.038-.294.05h-.023l-.247.023H5.808l-.247-.023h-.02c-.1 0-.203-.03-.294-.05h-.015c-.07 0-.14-.033-.208-.053h-.056l-.17-.056-.059-.02c-.065-.027-.13-.053-.188-.083h-.026a1.855 1.855 0 0 1-.17-.097l-.033-.017h-.02a1.919 1.919 0 0 1-.165-.127l-2.681-2.27-1.175-.99a1.376 1.376 0 0 1-.094-.088L.172 8.86v-.015L.12 8.778V8.76a1.178 1.178 0 0 1-.05-.08l-.014-.029a.467.467 0 0 1-.036-.079v-.02a.12.12 0 0 0 0-.021l-.017-.059v-.12.209c-.007-.07.005-.678.033-.741a.402.402 0 0 1 .128-.16Z"/></mask><path fill="#3575CF" d="M.163 7.66a.405.405 0 0 1 .435.056l3.754 3.487a2.772 2.772 0 0 0 1.686.464h7.712a2.778 2.778 0 0 0 1.686-.464l3.9-3.654a.405.405 0 0 1 .428-.05c.07.031.128.082.17.146.042.064.064.84.065.916v-.937V8.467l-.017.058a.036.036 0 0 1 0 .02v.021l-.036.08-.015.029c0 .026-.032.053-.05.079l-.014.018-.097.073v.015a.097.097 0 0 1-.018.017c-.026.03-.058.06-.09.089l-1.175.99-2.682 2.27a1.918 1.918 0 0 1-.164.126h-.018l-.032.017a1.907 1.907 0 0 1-.173.097h-.024l-.19.083-.057.02-.173.056h-.053c-.067.02-.138.038-.208.053h-.015c-.1.02-.206.038-.294.05h-.023l-.247.023H5.808l-.247-.023h-.02c-.1 0-.203-.03-.294-.05h-.015c-.07 0-.14-.033-.208-.053h-.056l-.17-.056-.059-.02c-.065-.027-.13-.053-.188-.083h-.026a1.855 1.855 0 0 1-.17-.097l-.033-.017h-.02a1.919 1.919 0 0 1-.165-.127l-2.681-2.27-1.175-.99a1.376 1.376 0 0 1-.094-.088L.172 8.86v-.015L.12 8.778V8.76a1.178 1.178 0 0 1-.05-.08l-.014-.029a.467.467 0 0 1-.036-.079v-.02a.12.12 0 0 0 0-.021l-.017-.059v-.12.209c-.007-.07.005-.678.033-.741a.402.402 0 0 1 .128-.16Z"/><path fill="#3575CF" d="m.163 7.66-.891-1.206.117-.086.13-.063.644 1.355Zm.435.056.965-1.148.028.024.028.025L.598 7.716Zm3.754 3.487-.834 1.247-.1-.067-.087-.081 1.02-1.1Zm1.686.464-.079-1.498.04-.002h.039v1.5Zm7.712 0v-1.5h.039l.038.002-.077 1.498Zm1.686-.464 1.025 1.094-.09.085-.102.068-.833-1.247Zm3.9-3.654L18.31 6.454l.041-.039.044-.035.94 1.169Zm.428-.05-.624 1.364-.011-.006-.012-.005.647-1.353ZM20 8.56h1.5l-3 .017 1.5-.017Zm0-.937h1.5H20Zm0 .02-1.498.081-.002-.04v-.04H20Zm0 .77h-1.5v-.04l.002-.04 1.498.08Zm0 .052h1.5v.22l-.063.211-1.437-.43Zm-.017.059-1.435.437-.133-.433.13-.435 1.438.431Zm0 .02h-1.5v-.223l.065-.214 1.434.438Zm0 .021h1.5v.318l-.13.291-1.37-.609Zm-.036.08 1.37.609-.013.03-.015.031-1.342-.67Zm-.015.029h-1.5V8.32l.159-.317 1.341.67Zm-.05.079 1.249.832-.045.067-.051.061-1.152-.96Zm-.014.018 1.152.96-.11.132-.136.103-.906-1.195Zm-.097.073h-1.5V8.1l.594-.45.906 1.195Zm0 .015h1.5v.51l-.312.405-1.188-.915Zm-.018.017-1.114-1.003.09-.102.109-.083.915 1.188Zm-.09.089 1.008 1.11-.02.018-.022.019-.967-1.147Zm-1.175.99-.97-1.146.003-.002.967 1.147Zm-2.682 2.27-.977-1.139.008-.006.97 1.145Zm-.164.126.847 1.237-.383.263h-.464v-1.5Zm-.018 0-.718-1.317.336-.183h.382v1.5Zm-.032.017-.8-1.269.04-.025.042-.022.718 1.316Zm-.173.097.663 1.346-.314.154h-.35v-1.5Zm-.024 0-.593-1.377.284-.123h.309v1.5Zm-.19.083.593 1.377-.038.016-.037.014-.519-1.407Zm-.057.02.519 1.408-.03.01-.029.01-.46-1.428Zm-.173.056.46 1.428-.224.072h-.236v-1.5Zm-.053 0-.436-1.435.213-.065h.223v1.5Zm-.208.053.306 1.468-.152.032h-.154v-1.5Zm-.015 0-.303-1.47.15-.03h.153v1.5Zm-.294.05.199 1.486-.1.014h-.099v-1.5Zm-.023 0-.142-1.494.07-.006h.072v1.5Zm-.247.023.142 1.493-.07.007h-.072v-1.5Zm-8.326 0v1.5h-.071l-.071-.007.142-1.493Zm-.247-.023v-1.5h.072l.07.006-.142 1.494Zm-.314-.05v-1.5h.167l.163.037-.33 1.463Zm-.223-.053v-1.5h.223l.214.065-.437 1.435Zm-.056 0v1.5h-.24l-.227-.075.467-1.425Zm-.17-.056-.467 1.426-.015-.005-.014-.005.496-1.416Zm-.059-.02-.496 1.415-.036-.013-.036-.014.568-1.388Zm-.188-.083v-1.5h.354l.317.159-.671 1.341Zm-.026 0v1.5H4.17l-.317-.159.672-1.34Zm-.17-.097.718-1.316.046.025.045.029-.81 1.262Zm-.033-.017v-1.5h.382l.336.183-.718 1.317Zm-.02 0v1.5h-.465l-.383-.263.847-1.237Zm-.165-.127.97-1.144.007.006-.977 1.139Zm-2.681-2.27.966-1.147.003.002-.97 1.145ZM.28 8.965l.96-1.152.006.005-.966 1.148Zm-.094-.088-1.06 1.061-.049-.048-.044-.052 1.153-.96ZM.172 8.86l-1.152.96-.348-.417V8.86h1.5Zm0-.015 1.181-.924.32.407v.517h-1.5ZM.12 8.778l-1.181.924-.319-.407v-.517h1.5Zm0-.018 1.248-.832.252.378v.454H.12Zm-.05-.08-1.31.73-.017-.03-.014-.028L.069 8.68Zm-.014-.029 1.308-.734.017.031.016.032-1.341.671Zm-.036-.079-1.421.48-.079-.234v-.246h1.5Zm0-.02h-1.5v-.065l.006-.064 1.494.128Zm0-.021L1.456 8.1l.045.148.013.155-1.495.128Zm-.017-.059-1.437.431-.063-.21v-.22h1.5Zm0 .089h1.5l-2.994.14 1.494-.14ZM-.48 6.305c.33-.156.698-.215 1.06-.169L.198 9.112c.208.027.42-.007.609-.097L-.48 6.305Zm1.06-.169c.362.047.703.197.983.432l-1.93 2.296c.16.135.357.221.565.248L.58 6.136Zm1.039.48 3.754 3.488-2.042 2.198-3.754-3.487L1.62 6.617Zm3.567 3.34c.228.152.5.227.773.213l.157 2.996a4.272 4.272 0 0 1-2.598-.715l1.668-2.494Zm.852.21h7.712v3H6.038v-3Zm7.79.003c.274.014.546-.061.775-.214l1.666 2.495a4.278 4.278 0 0 1-2.596.715l.154-2.996Zm.582-.06 3.9-3.655 2.051 2.189-3.9 3.654-2.05-2.189Zm3.985-3.73c.28-.224.617-.366.974-.407l.347 2.98c.205-.024.399-.105.56-.235L18.395 6.38Zm.974-.407c.357-.042.718.018 1.042.173l-1.294 2.707c.187.089.394.123.599.1l-.347-2.98Zm1.02.163c.327.15.606.39.803.692l-2.515 1.636c.113.174.274.313.463.4l1.248-2.728Zm.803.692c.14.217.191.422.2.452.018.073.03.135.036.173.013.078.021.153.027.209.01.116.019.247.025.36.011.226.018.46.019.522l-3 .035v-.035a18.45 18.45 0 0 0-.015-.367 5.512 5.512 0 0 0-.016-.228c-.002-.027-.003-.024.001 0 .002.01.009.049.023.103a1.377 1.377 0 0 0 .185.412l2.515-1.636Zm-2.693 1.734v-.937h3v.937h-3Zm1.5-.937h1.5V7.645h-3V7.624H20Zm1.498-.06c.003.065.003.324.003.465 0 .141 0 .4-.003.465l-2.996-.16a1.11 1.11 0 0 0-.001.038V8.386v-.019a40.82 40.82 0 0 0 0-.676v-.019V7.686l.001.04 2.996-.161Zm.002.85v.023h-3v-.024h3Zm0 .023v.03h-3v-.03h3Zm-.063.46-.018.059-2.873-.862.017-.059 2.874.862Zm-.02-.81c.09.292.09.604 0 .896l-2.87-.875a1.465 1.465 0 0 0 0 .854l2.87-.875Zm.066.459v.02h-3v-.02h3Zm-.13.63-.035.079-2.741-1.219.035-.08 2.741 1.22Zm-.064.14-.015.03-2.683-1.342.015-.03 2.683 1.342Zm.143-.641a1.544 1.544 0 0 1-.334.96l-.048.06.024-.03c.012-.016.033-.043.057-.079l-2.496-1.664c.051-.078.1-.136.11-.148.028-.033 0 0-.015.02a1.456 1.456 0 0 0-.298.881h3Zm-.397 1.04-.015.017-2.304-1.92.014-.018 2.305 1.92Zm-.261.252-.097.074-1.812-2.392.097-.073 1.812 2.391Zm.497-1.122v.015h-3v-.015h3Zm-.312.93a1.596 1.596 0 0 1-.29.29L18.837 7.69c-.096.074-.182.16-.255.255l2.376 1.831Zm-.09.106c-.087.096-.179.177-.198.194l-2.018-2.22a1.97 1.97 0 0 0 .012-.01.754.754 0 0 0-.027.029l2.23 2.007Zm-.24.232-1.175.99-1.933-2.295 1.175-.99 1.933 2.295Zm-1.172.987-2.681 2.27-1.939-2.29 2.681-2.27 1.939 2.29Zm-2.674 2.264c-.094.08-.192.156-.294.225l-1.695-2.475a.411.411 0 0 0 .035-.027l1.954 2.277Zm-1.141.488h-.018v-3h.018v3Zm.7-.183-.032.017-1.437-2.633.033-.018 1.436 2.634Zm.049-.03c-.1.063-.203.12-.31.173l-1.326-2.691a.46.46 0 0 0 .038-.021l1.598 2.539Zm-.973.327h-.023v-3h.024v3Zm.57-.122-.19.082-1.187-2.755.19-.082 1.188 2.755Zm-.265.112-.056.02-1.037-2.814.056-.021 1.037 2.815Zm-.115.04-.173.057-.92-2.856.174-.056.92 2.856Zm-.633.129h-.015v-3h.015v3Zm-.015 0h-.038v-3h.038v3Zm.399-.065c-.116.035-.23.064-.34.086l-.611-2.937a.93.93 0 0 0 .078-.02l.873 2.87Zm-.645.118h-.015v-3h.015v3Zm.288-.031a5.861 5.861 0 0 1-.398.067l-.397-2.973c.054-.007.125-.02.19-.032L15 14.147Zm-.597.08h-.023v-3h.023v3Zm.119-.006-.247.023-.284-2.986.247-.024.284 2.987Zm-.389.03h-.02v-3h.02v3Zm-.02 0H13.925v-3H14.114v3Zm-.188 0h-7.91v-3h7.91v3Zm-7.91 0H5.828v-3H6.017v3Zm-.187 0h-.021v-3h.02v3Zm-.163-.007-.247-.023.285-2.987.246.024-.284 2.986Zm-.105-.016h-.02v-3h.02v3Zm-.02 0a2.26 2.26 0 0 1-.567-.074l-.057-.013.66-2.926.05.011.019.004.015.004.019.005h.005l-.037-.005a.876.876 0 0 0-.107-.006v3Zm-.294-.05h-.015v-3h.015v3Zm-.015 0c-.254 0-.454-.057-.543-.084l-.102-.034c-.022-.007-.013-.004 0 0l.874-2.87c.047.014.09.03.102.033.021.008.014.005.002.001a1.22 1.22 0 0 0-.333-.047v3Zm-.208-.053h-.041v-3h.04v3Zm-.041 0h-.015v-3h.015v3ZM4.5 14.05l-.17-.055.934-2.851.17.055-.934 2.851Zm-.199-.065-.059-.02.992-2.832.058.02-.99 2.832Zm-.131-.048c-.053-.022-.172-.07-.29-.13l1.34-2.682c-.004-.003-.002-.001.015.006l.07.03-1.135 2.776Zm.38.03h-.026v-3h.026v3Zm-.698-.16a3.347 3.347 0 0 1-.308-.175l1.619-2.525c.01.006.021.013.032.018l-1.343 2.682Zm-.217-.12-.032-.018 1.436-2.634.033.018-1.437 2.633Zm.686.165h-.02v-3h.02v3Zm-.868-.263a3.42 3.42 0 0 1-.294-.225l1.954-2.277c.011.01.023.019.035.027l-1.695 2.475Zm-.286-.219L.486 11.1l1.939-2.29 2.681 2.27-1.938 2.29ZM.489 11.102l-1.175-.99 1.933-2.294 1.175.99-1.933 2.294Zm-1.169-.984c-.094-.08-.169-.155-.194-.18l2.121-2.121.016.015.003.003a.52.52 0 0 0-.025-.022l-1.92 2.305Zm-.286-.28L-.98 9.82 1.324 7.9l.015.017-2.305 1.92Zm-.362-.978v-.015h3v.015h-3Zm.319.91-.053-.068L1.3 7.853l.053.068-2.362 1.849Zm-.372-.992V8.76h3v.018h-3Zm.252.814c-.01-.016-.063-.094-.113-.183l2.623-1.457a.878.878 0 0 0-.024-.04l.001.002.01.014-2.497 1.664Zm-.143-.24-.015-.03L1.396 7.98l.015.03-2.683 1.342Zm.018.033a1.966 1.966 0 0 1-.148-.334l2.843-.958c-.02-.061-.047-.12-.078-.176l-2.617 1.468Zm-.227-.813v-.02h3v.02h-3Zm.006-.149a1.378 1.378 0 0 0 0 .236l2.989-.256a1.62 1.62 0 0 1 0 .276l-2.99-.256Zm.058.539-.018-.059 2.874-.862.017.059-2.873.862Zm1.419-.49h-1.5V8.442h3V8.473h-1.5Zm-1.5-.03V8.42h3v.024h-3Zm0-.023V8.351h3V8.42h-3Zm3-.067v.209h-3v-.21h3Zm-2.994.349a5.716 5.716 0 0 1-.002-.563c.003-.093.008-.2.015-.296a3.042 3.042 0 0 1 .04-.307c.006-.032.034-.17.105-.328l2.738 1.225a1.459 1.459 0 0 0 .108-.37l.002-.014-.001.015a3.059 3.059 0 0 0-.008.175 8.652 8.652 0 0 0-.005.258v-.002a1.026 1.026 0 0 0-.005-.073l-2.987.28Zm.158-1.494c.134-.299.342-.559.606-.753l1.783 2.413c.152-.113.272-.262.35-.435l-2.74-1.225Z" mask="url(#a)"/><mask id="b" fill="#fff"><path d="M.163 10.993a.406.406 0 0 1 .435.056l3.754 3.487A2.772 2.772 0 0 0 6.038 15h7.712a2.779 2.779 0 0 0 1.686-.464l3.9-3.654a.405.405 0 0 1 .428-.05c.07.031.128.082.17.146.042.064.064.84.065.916v-.937V11.8l-.017.058a.036.036 0 0 1 0 .02v.021l-.036.08-.015.029c0 .026-.032.053-.05.08l-.014.017-.097.073v.015a.098.098 0 0 1-.018.017c-.026.03-.058.06-.09.088l-1.175.99-2.682 2.27a1.918 1.918 0 0 1-.164.127h-.018l-.032.017a1.907 1.907 0 0 1-.173.097h-.024l-.19.083-.057.02-.173.056h-.053a2.39 2.39 0 0 1-.208.053h-.015c-.1.02-.206.038-.294.05h-.023l-.247.023H5.808l-.247-.023h-.02c-.1 0-.203-.03-.294-.05h-.015c-.07 0-.14-.032-.208-.053h-.056l-.17-.056-.059-.02c-.065-.027-.13-.053-.188-.083h-.026a1.855 1.855 0 0 1-.17-.097l-.033-.017h-.02a1.919 1.919 0 0 1-.165-.127l-2.681-2.27-1.175-.99a1.376 1.376 0 0 1-.094-.088l-.015-.017v-.015l-.053-.067v-.018a1.153 1.153 0 0 1-.05-.08l-.014-.029a.47.47 0 0 1-.036-.079v-.02a.12.12 0 0 0 0-.021l-.017-.059v-.12.209c-.007-.07.005-.678.033-.741a.402.402 0 0 1 .128-.16Z"/></mask><path fill="#3575CF" d="m.163 10.993-.891-1.206.117-.086.13-.063.644 1.355Zm.435.056.965-1.148.028.024.028.025-1.021 1.099Zm3.754 3.487-.834 1.247-.1-.067-.087-.081 1.02-1.1ZM6.038 15l-.079-1.498L6 13.5h.039V15Zm7.712 0v-1.5h.039l.038.002L13.75 15Zm1.686-.464 1.025 1.094-.09.085-.102.068-.833-1.247Zm3.9-3.654L18.31 9.787l.041-.039.044-.035.94 1.169Zm.428-.05-.624 1.364-.011-.006-.012-.005.647-1.353ZM20 11.894h1.5l-3 .017 1.5-.017Zm0-.937h1.5H20Zm0 .02-1.498.081-.002-.04v-.04H20Zm0 .77h-1.5v-.04l.002-.04 1.498.08Zm0 .052h1.5v.22l-.063.211-1.437-.43Zm-.017.059-1.435.438-.133-.434.13-.435 1.438.431Zm0 .02h-1.5v-.223l.065-.214 1.434.438Zm0 .021h1.5v.318l-.13.291-1.37-.609Zm-.036.08 1.37.609-.013.03-.015.031-1.342-.67Zm-.015.029h-1.5v-.354l.159-.317 1.341.67Zm-.05.08 1.249.831-.045.067-.051.061-1.152-.96Zm-.014.017 1.152.96-.11.132-.136.103-.906-1.195Zm-.097.073h-1.5v-.745l.594-.45.906 1.195Zm0 .015h1.5v.51l-.312.405-1.188-.915Zm-.018.017-1.114-1.003.09-.102.109-.083.915 1.188Zm-.09.088 1.008 1.11-.02.02-.022.018-.967-1.147Zm-1.175.99-.97-1.145.003-.002.967 1.147Zm-2.682 2.27-.977-1.138.008-.006.97 1.145Zm-.164.127.847 1.237-.383.263h-.464v-1.5Zm-.018 0-.718-1.317.336-.183h.382v1.5Zm-.032.017-.8-1.269.04-.025.042-.022.718 1.316Zm-.173.097.663 1.346-.314.154h-.35v-1.5Zm-.024 0-.593-1.377.284-.123h.309v1.5Zm-.19.083.593 1.377-.038.016-.037.014-.519-1.408Zm-.057.02.519 1.408-.03.01-.029.01-.46-1.428Zm-.173.056.46 1.428-.224.072h-.236v-1.5Zm-.053 0-.436-1.435.213-.065h.223v1.5Zm-.208.053.306 1.468-.152.032h-.154v-1.5Zm-.015 0-.303-1.47.15-.03h.153v1.5Zm-.294.05.199 1.486-.1.014h-.099v-1.5Zm-.023 0-.142-1.494.07-.006h.072v1.5Zm-.247.023.142 1.493-.07.007h-.072v-1.5Zm-8.326 0v1.5h-.071l-.071-.007.142-1.493Zm-.247-.023v-1.5h.072l.07.006-.142 1.494Zm-.314-.05v-1.5h.167l.163.037-.33 1.463Zm-.223-.053v-1.5h.223l.214.065-.437 1.435Zm-.056 0v1.5h-.24l-.227-.075.467-1.425Zm-.17-.056-.467 1.426-.015-.005-.014-.005.496-1.416Zm-.059-.02-.496 1.415-.036-.012-.036-.015.568-1.388Zm-.188-.083v-1.5h.354l.317.159-.671 1.341Zm-.026 0v1.5H4.17l-.317-.159.672-1.34Zm-.17-.097.718-1.316.046.025.045.029-.81 1.262Zm-.033-.017v-1.5h.382l.336.183-.718 1.317Zm-.02 0v1.5h-.465l-.383-.262.847-1.238Zm-.165-.127.97-1.144.007.006-.977 1.139Zm-2.681-2.27.966-1.147.003.002-.97 1.145Zm-1.175-.99.96-1.152.006.005L.281 12.3Zm-.094-.088-1.06 1.061-.049-.048-.044-.052 1.153-.96Zm-.015-.017-1.152.96-.348-.417v-.543h1.5Zm0-.015 1.181-.924.32.407v.517h-1.5Zm-.053-.067-1.181.924-.319-.407v-.517h1.5Zm0-.018 1.248-.832.252.378v.454H.12Zm-.05-.08-1.31.73-.017-.03-.014-.028 1.341-.671Zm-.014-.029 1.308-.734.017.031.016.032-1.341.671Zm-.036-.079-1.421.48-.079-.234v-.246h1.5Zm0-.02h-1.5v-.065l.006-.064 1.494.128Zm0-.021 1.437-.431.045.148.013.155-1.495.128Zm-.017-.059-1.437.431-.063-.21v-.22h1.5Zm0 .089h1.5l-2.994.14 1.494-.14ZM-.48 9.638c.33-.156.698-.215 1.06-.169l-.382 2.976c.208.027.42-.007.609-.097L-.48 9.638ZM.58 9.47c.362.047.703.197.983.432l-1.93 2.296c.16.135.357.221.565.248L.58 9.47Zm1.039.48 3.754 3.488-2.042 2.198-3.754-3.487L1.62 9.95Zm3.567 3.34c.228.152.5.227.773.213l.157 2.996a4.272 4.272 0 0 1-2.598-.715l1.668-2.494Zm.852.21h7.712v3H6.038v-3Zm7.79.003c.274.014.546-.061.775-.214l1.666 2.495a4.278 4.278 0 0 1-2.596.715l.154-2.996Zm.582-.06 3.9-3.655 2.051 2.189-3.9 3.654-2.05-2.189Zm3.985-3.73c.28-.224.617-.366.974-.407l.347 2.98c.205-.024.399-.105.56-.235l-1.881-2.337Zm.974-.407c.357-.042.718.018 1.042.173l-1.294 2.707c.187.089.394.123.599.1l-.347-2.98Zm1.02.163c.327.15.606.39.803.692l-2.515 1.636c.113.174.274.313.463.4l1.248-2.728Zm.803.692c.14.217.191.422.2.453.018.072.03.134.036.172.013.078.021.153.027.209.01.116.019.247.025.36.011.226.018.46.019.523l-3 .034v-.035a18.544 18.544 0 0 0-.015-.367 5.507 5.507 0 0 0-.016-.228c-.002-.027-.003-.024.001 0 .002.01.009.049.023.103a1.377 1.377 0 0 0 .185.412l2.515-1.636Zm-2.693 1.734v-.937h3v.937h-3Zm1.5-.937h1.5V10.978h-3V10.957H20Zm1.498-.06c.003.065.003.324.003.465 0 .141 0 .4-.003.465l-2.996-.16-.001.038V11.72 11.7a40.628 40.628 0 0 0 0-.676v-.019V11.02l.001.04 2.996-.161Zm.002.85v.023h-3v-.024h3Zm0 .023v.03h-3v-.03h3Zm-.063.46-.018.059-2.873-.862.017-.059 2.874.862Zm-.02-.81c.09.292.09.604 0 .896l-2.87-.875a1.465 1.465 0 0 0 0 .854l2.87-.874Zm.066.459v.02h-3v-.02h3Zm-.13.63-.035.079-2.741-1.219.035-.08 2.741 1.22Zm-.064.14-.015.03-2.683-1.342.015-.03 2.683 1.342Zm.143-.641a1.544 1.544 0 0 1-.334.96l-.048.06a1.145 1.145 0 0 0 .08-.109l-2.495-1.664c.051-.078.1-.136.11-.148.028-.032 0 0-.015.02a1.456 1.456 0 0 0-.298.881h3Zm-.397 1.04-.015.017-2.304-1.92.014-.018 2.305 1.92Zm-.261.252-.097.074-1.812-2.392.097-.073 1.812 2.391Zm.497-1.122v.015h-3v-.015h3Zm-.312.93a1.596 1.596 0 0 1-.29.29l-1.831-2.376a1.4 1.4 0 0 0-.255.255l2.376 1.831Zm-.09.106c-.087.096-.179.177-.198.194l-2.018-2.22.018-.016.005-.004-.01.01a.696.696 0 0 0-.027.029l2.23 2.007Zm-.24.232-1.175.99-1.933-2.295 1.175-.99 1.933 2.295Zm-1.172.987-2.681 2.27-1.939-2.29 2.681-2.27 1.939 2.29Zm-2.674 2.264c-.094.08-.192.156-.294.226l-1.695-2.476a.391.391 0 0 0 .035-.027l1.954 2.277Zm-1.141.488h-.018v-3h.018v3Zm.7-.183-.032.017-1.437-2.633.033-.018 1.436 2.634Zm.049-.03c-.1.063-.203.12-.31.173l-1.326-2.691a.46.46 0 0 0 .038-.021l1.598 2.539Zm-.973.327h-.023v-3h.024v3Zm.57-.122-.19.082-1.187-2.755.19-.082 1.188 2.755Zm-.265.112-.056.02-1.037-2.814.056-.021 1.037 2.815Zm-.115.04-.173.057-.92-2.856.174-.056.92 2.856Zm-.633.129h-.015v-3h.015v3Zm-.015 0h-.038v-3h.038v3Zm.399-.065c-.116.035-.23.064-.34.086l-.611-2.937a.93.93 0 0 0 .078-.02l.873 2.87Zm-.645.118h-.015v-3h.015v3ZM15 17.48a5.861 5.861 0 0 1-.398.067l-.397-2.973c.054-.007.125-.02.19-.032L15 17.48Zm-.597.08h-.023v-3h.023v3Zm.119-.006-.247.023-.284-2.986.247-.024.284 2.987Zm-.389.03h-.02v-3h.02v3Zm-.02 0H13.925v-3H14.114v3Zm-.188 0h-7.91v-3h7.91v3Zm-7.91 0H5.828v-3H6.017v3Zm-.187 0h-.021v-3h.02v3Zm-.163-.007-.247-.023.285-2.987.246.024-.284 2.986Zm-.105-.016h-.02v-3h.02v3Zm-.02 0a2.26 2.26 0 0 1-.567-.074l-.057-.013.66-2.926.05.011.019.005.015.003.019.005h.005l-.037-.005a.876.876 0 0 0-.107-.006v3Zm-.294-.05h-.015v-3h.015v3Zm-.015 0a1.858 1.858 0 0 1-.645-.118c-.022-.007-.013-.004 0 0l.874-2.87c.047.014.09.03.102.033.021.008.014.005.002.001a1.22 1.22 0 0 0-.333-.047v3Zm-.208-.053h-.041v-3h.04v3Zm-.041 0h-.015v-3h.015v3Zm-.482-.075-.17-.055.934-2.851.17.055-.934 2.851Zm-.199-.065-.059-.02.992-2.832.058.02-.99 2.832Zm-.131-.048c-.053-.022-.172-.07-.29-.13l1.34-2.682c-.004-.003-.002-.001.015.006l.07.03-1.135 2.776Zm.38.03h-.026v-3h.026v3Zm-.698-.16a3.347 3.347 0 0 1-.308-.175l1.619-2.525c.01.006.021.013.032.018L3.853 17.14Zm-.217-.12-.032-.018 1.436-2.634.033.018-1.437 2.633Zm.686.165h-.02v-3h.02v3Zm-.868-.262a3.42 3.42 0 0 1-.294-.226l1.954-2.277c.011.01.023.019.035.027l-1.695 2.476Zm-.286-.22-2.682-2.27 1.939-2.29 2.681 2.27-1.938 2.29ZM.489 14.435l-1.175-.99 1.933-2.294 1.175.99-1.933 2.294Zm-1.169-.984c-.094-.08-.169-.155-.194-.18l2.121-2.121.016.015.003.003a.473.473 0 0 0-.025-.022l-1.92 2.305Zm-.286-.28-.014-.018 2.304-1.92.015.017-2.305 1.92Zm-.362-.978v-.015h3v.015h-3Zm.319.91-.053-.068L1.3 11.186l.053.068-2.362 1.849Zm-.372-.992v-.018h3v.018h-3Zm.252.814c-.01-.016-.063-.094-.113-.183l2.623-1.457a.866.866 0 0 0-.016-.027l-.008-.012c0-.002 0-.002.001.001l.01.014-2.497 1.664Zm-.143-.24-.015-.03 2.683-1.342.015.03-2.683 1.341Zm.018.033a1.967 1.967 0 0 1-.148-.334l2.843-.958c-.02-.061-.047-.12-.078-.176l-2.617 1.468Zm-.227-.813v-.02h3v.02h-3Zm.006-.149a1.378 1.378 0 0 0 0 .236l2.989-.256a1.62 1.62 0 0 1 0 .276l-2.99-.256Zm.058.539-.018-.059 2.874-.862.017.059-2.873.862Zm1.419-.49h-1.5V11.775h3V11.806h-1.5Zm-1.5-.03v-.023h3v.024h-3Zm0-.023V11.684h3V11.753h-3Zm3-.067v.209h-3v-.21h3Zm-2.994.349a5.715 5.715 0 0 1-.002-.563c.003-.093.008-.2.015-.296a3.048 3.048 0 0 1 .04-.307c.006-.032.034-.17.105-.328l2.738 1.225a1.46 1.46 0 0 0 .108-.37l.002-.014-.001.015a3.073 3.073 0 0 0-.008.175 8.657 8.657 0 0 0-.005.258v-.002a.996.996 0 0 0-.005-.073l-2.987.28Zm.158-1.494c.134-.299.342-.559.606-.753L1.055 12.2c.152-.113.272-.262.35-.435l-2.74-1.225Z" mask="url(#b)"/><mask id="c" fill="#fff"><path d="M.163 14.327a.406.406 0 0 1 .435.056l3.754 3.486a2.772 2.772 0 0 0 1.686.464h7.712a2.779 2.779 0 0 0 1.686-.464l3.9-3.654a.405.405 0 0 1 .428-.05c.07.032.128.083.17.147.042.064.064.839.065.915v-.936V15.133l-.017.059a.036.036 0 0 1 0 .02v.02l-.036.08-.015.03c0 .026-.032.052-.05.079l-.014.017-.097.074v.014a.098.098 0 0 1-.018.018c-.026.03-.058.059-.09.088l-1.175.99-2.682 2.27a1.918 1.918 0 0 1-.164.126h-.018l-.032.018a1.907 1.907 0 0 1-.173.097h-.024l-.19.082-.057.02-.173.056h-.053c-.067.02-.138.039-.208.053h-.015c-.1.02-.206.038-.294.05h-.023l-.247.024H5.808l-.247-.024h-.02c-.1 0-.203-.03-.294-.05h-.015c-.07 0-.14-.032-.208-.053h-.056l-.17-.055-.059-.021c-.065-.026-.13-.053-.188-.082h-.026a1.855 1.855 0 0 1-.17-.097l-.033-.018h-.02a1.919 1.919 0 0 1-.165-.126l-2.681-2.27-1.175-.99a1.376 1.376 0 0 1-.094-.088l-.015-.018v-.014l-.053-.068v-.018a1.153 1.153 0 0 1-.05-.079l-.014-.03a.47.47 0 0 1-.036-.079v-.02a.12.12 0 0 0 0-.02l-.017-.06V15.019v.21c-.007-.07.005-.679.033-.742a.402.402 0 0 1 .128-.16Z"/></mask><path fill="#3575CF" d="m.163 14.327-.891-1.207.117-.086.13-.062.644 1.355Zm.435.056.965-1.149.028.024.028.025-1.021 1.1Zm3.754 3.486-.834 1.247-.1-.066-.087-.082 1.02-1.099Zm1.686.464-.079-1.498.04-.002h.039v1.5Zm7.712 0v-1.5h.039l.038.002-.077 1.498Zm1.686-.464 1.025 1.095-.09.084-.102.069-.833-1.248Zm3.9-3.654L18.31 13.12l.041-.038.044-.036.94 1.169Zm.428-.05-.624 1.364-.011-.005-.012-.005.647-1.354ZM20 15.227h1.5l-3 .018 1.5-.018Zm0-.936h1.5H20Zm0 .02-1.498.08-.002-.04v-.04H20Zm0 .769h-1.5v-.04l.002-.04 1.498.08Zm0 .053h1.5v.22l-.063.21-1.437-.43Zm-.017.059-1.435.437-.133-.434.13-.434 1.438.43Zm0 .02h-1.5v-.224l.065-.213 1.434.437Zm0 .02h1.5v.319l-.13.29-1.37-.608Zm-.036.08 1.37.61-.013.03-.015.03-1.342-.67Zm-.015.03h-1.5v-.355l.159-.317 1.341.671Zm-.05.079 1.249.832-.045.066-.051.062-1.152-.96Zm-.014.017 1.152.96-.11.132-.136.104-.906-1.196Zm-.097.074h-1.5v-.746l.594-.45.906 1.196Zm0 .014h1.5v.511l-.312.405-1.188-.916Zm-.018.018-1.114-1.004.09-.101.109-.083.915 1.188Zm-.09.088 1.008 1.11-.02.019-.022.018-.967-1.147Zm-1.175.99-.97-1.145.003-.002.967 1.147Zm-2.682 2.27-.977-1.138.008-.007.97 1.145Zm-.164.126.847 1.238-.383.262h-.464v-1.5Zm-.018 0-.718-1.317.336-.183h.382v1.5Zm-.032.018-.8-1.27.04-.024.042-.023.718 1.317Zm-.173.097.663 1.345-.314.155h-.35v-1.5Zm-.024 0-.593-1.378.284-.122h.309v1.5Zm-.19.082.593 1.378-.038.016-.037.013-.519-1.407Zm-.057.02.519 1.408-.03.01-.029.01-.46-1.427Zm-.173.056.46 1.428-.224.072h-.236v-1.5Zm-.053 0-.436-1.435.213-.065h.223v1.5Zm-.208.053.306 1.469-.152.031h-.154v-1.5Zm-.015 0-.303-1.469.15-.03h.153v1.5Zm-.294.05.199 1.487-.1.013h-.099v-1.5Zm-.023 0-.142-1.493.07-.007h.072v1.5Zm-.247.024.142 1.493-.07.007h-.072v-1.5Zm-8.326 0v1.5h-.071l-.071-.007.142-1.493Zm-.247-.024v-1.5h.072l.07.007-.142 1.493Zm-.314-.05v-1.5h.167l.163.037-.33 1.463Zm-.223-.053v-1.5h.223l.214.065-.437 1.435Zm-.056 0v1.5h-.24l-.227-.074.467-1.426Zm-.17-.055L4.33 20.66l-.015-.005-.014-.005.496-1.415Zm-.059-.021-.496 1.416-.036-.013-.036-.015.568-1.388Zm-.188-.082v-1.5h.354l.317.158-.671 1.342Zm-.026 0v1.5H4.17l-.317-.16.672-1.34Zm-.17-.097.718-1.317.046.025.045.03-.81 1.262Zm-.033-.018v-1.5h.382l.336.183-.718 1.317Zm-.02 0v1.5h-.465l-.383-.262.847-1.238Zm-.165-.126.97-1.145.007.007-.977 1.138Zm-2.681-2.27.966-1.147.003.002-.97 1.145Zm-1.175-.99.96-1.152.006.005-.966 1.147Zm-.094-.088-1.06 1.06-.049-.047-.044-.053 1.153-.96Zm-.015-.018-1.152.96-.348-.417v-.543h1.5Zm0-.014 1.181-.925.32.407v.518h-1.5Zm-.053-.068-1.181.925-.319-.408v-.517h1.5Zm0-.018 1.248-.832.252.378v.454H.12Zm-.05-.079-1.31.729-.017-.029-.014-.029 1.341-.67Zm-.014-.03 1.308-.733.017.031.016.032-1.341.67Zm-.036-.079-1.421.48-.079-.233v-.246h1.5Zm0-.02h-1.5v-.064l.006-.064 1.494.128Zm0-.02 1.437-.432.045.149.013.154-1.495.128Zm-.017-.06-1.437.432-.063-.211v-.22h1.5Zm0 .09h1.5l-2.994.14 1.494-.14Zm-.482-2.256c.33-.157.698-.215 1.06-.169l-.382 2.976c.208.026.42-.007.609-.097l-1.287-2.71Zm1.06-.169c.362.046.703.196.983.431l-1.93 2.297c.16.135.357.22.565.248l.382-2.976Zm1.039.48 3.754 3.487-2.042 2.198-3.754-3.486 2.042-2.199Zm3.567 3.34c.228.152.5.227.773.212l.157 2.996a4.272 4.272 0 0 1-2.598-.715l1.668-2.494Zm.852.21h7.712v3H6.038v-3Zm7.79.002c.274.014.546-.06.775-.213l1.666 2.495a4.278 4.278 0 0 1-2.596.714l.154-2.996Zm.582-.06 3.9-3.654 2.051 2.188-3.9 3.655-2.05-2.19Zm3.985-3.729c.28-.225.617-.366.974-.408l.347 2.98c.205-.024.399-.105.56-.234l-1.881-2.338Zm.974-.408c.357-.041.718.019 1.042.174l-1.294 2.707c.187.088.394.123.599.1l-.347-2.98Zm1.02.163c.327.15.606.39.803.693l-2.515 1.635c.113.175.274.314.463.4l1.248-2.728Zm.803.693c.14.217.191.422.2.452.018.072.03.135.036.172.013.078.021.154.027.21.01.115.019.246.025.36.011.225.018.459.019.522l-3 .035v-.035a18.544 18.544 0 0 0-.015-.368 5.507 5.507 0 0 0-.016-.227c-.002-.028-.003-.024.001-.001.002.01.009.05.023.103a1.377 1.377 0 0 0 .185.412l2.515-1.635Zm-2.693 1.733v-.936h3v.936h-3Zm1.5-.936h1.5V14.312h-3V14.29H20Zm1.498-.06c.003.065.003.323.003.465 0 .14 0 .4-.003.464L18.5 15l-.001.039v.014-.02a40.628 40.628 0 0 0 0-.675v-.02.014l.001.04 2.996-.16Zm.002.849v.023h-3v-.023h3Zm0 .023v.03h-3v-.03h3Zm-.063.46-.018.06-2.873-.862.017-.06 2.874.863Zm-.02-.809c.09.292.09.604 0 .896l-2.87-.876a1.465 1.465 0 0 0 0 .855l2.87-.875Zm.066.458v.02h-3v-.02h3Zm-.13.63-.035.08-2.741-1.22.035-.079 2.741 1.219Zm-.064.14-.015.03-2.683-1.342.015-.029 2.683 1.342Zm.143-.64a1.544 1.544 0 0 1-.334.96l-.048.059a1.145 1.145 0 0 0 .08-.108l-2.495-1.665c.051-.077.1-.136.11-.147.028-.033 0-.001-.015.019a1.456 1.456 0 0 0-.298.881h3Zm-.397 1.039-.015.017-2.304-1.92.014-.018 2.305 1.92Zm-.261.253-.097.073-1.812-2.391.097-.074 1.812 2.392Zm.497-1.122v.014h-3v-.014h3Zm-.312.93a1.596 1.596 0 0 1-.29.29l-1.831-2.376a1.4 1.4 0 0 0-.255.255l2.376 1.83Zm-.09.105c-.087.096-.179.178-.198.195l-2.018-2.22.018-.016.005-.004-.01.01a.696.696 0 0 0-.027.028l2.23 2.007Zm-.24.232-1.175.99-1.933-2.294 1.175-.99 1.933 2.294Zm-1.172.988-2.681 2.27-1.939-2.29 2.681-2.27 1.939 2.29Zm-2.674 2.263c-.094.08-.192.156-.294.226l-1.695-2.476a.391.391 0 0 0 .035-.026l1.954 2.276Zm-1.141.488h-.018v-3h.018v3Zm.7-.183-.032.018-1.437-2.634.033-.018 1.436 2.634Zm.049-.03c-.1.063-.203.12-.31.173l-1.326-2.69a.46.46 0 0 0 .038-.021l1.598 2.538Zm-.973.328h-.023v-3h.024v3Zm.57-.123-.19.083-1.187-2.756.19-.082 1.188 2.755Zm-.265.112-.056.021-1.037-2.815.056-.02 1.037 2.814Zm-.115.041-.173.056-.92-2.855.174-.056.92 2.855Zm-.633.128h-.015v-3h.015v3Zm-.015 0h-.038v-3h.038v3Zm.399-.065c-.116.036-.23.064-.34.087l-.611-2.937a.93.93 0 0 0 .078-.02l.873 2.87Zm-.645.118h-.015v-3h.015v3Zm.288-.03a5.861 5.861 0 0 1-.398.067l-.397-2.974c.054-.007.125-.019.19-.032L15 20.813Zm-.597.08h-.023v-3h.023v3Zm.119-.007-.247.024-.284-2.987.247-.023.284 2.986Zm-.389.03h-.02v-3h.02v3Zm-.02 0H13.925v-3H14.114v3Zm-.188 0h-7.91v-3h7.91v3Zm-7.91 0H5.828v-3H6.017v3Zm-.187 0h-.021v-3h.02v3Zm-.163-.006-.247-.024.285-2.986.246.023-.284 2.987Zm-.105-.017h-.02v-3h.02v3Zm-.02 0a2.26 2.26 0 0 1-.567-.073l-.057-.014.66-2.926.05.011.019.005.015.004.019.004.005.001-.037-.006a.876.876 0 0 0-.107-.006v3Zm-.294-.05h-.015v-3h.015v3Zm-.015 0c-.254 0-.454-.057-.543-.084-.047-.014-.089-.029-.102-.033-.022-.008-.013-.005 0 0l.874-2.87c.047.014.09.029.102.033.021.007.014.005.002 0a1.22 1.22 0 0 0-.333-.047v3.001Zm-.208-.053h-.041v-3h.04v3Zm-.041 0h-.015v-3h.015v3Zm-.482-.074-.17-.056.934-2.85.17.055-.934 2.85Zm-.199-.066-.059-.02.992-2.832.058.02-.99 2.832Zm-.131-.048c-.053-.022-.172-.07-.29-.129l1.34-2.683.015.006.07.03-1.135 2.776Zm.38.03h-.026v-3h.026v3Zm-.698-.16a3.347 3.347 0 0 1-.308-.174l1.619-2.526.032.019-1.343 2.682Zm-.217-.12-.032-.018 1.436-2.634.033.018-1.437 2.634Zm.686.165h-.02v-3h.02v3Zm-.868-.262a3.42 3.42 0 0 1-.294-.226l1.954-2.276c.011.01.023.018.035.026l-1.695 2.476Zm-.286-.22-2.682-2.27 1.939-2.289 2.681 2.27-1.938 2.29ZM.489 17.77l-1.175-.99 1.933-2.294 1.175.99-1.933 2.294Zm-1.169-.985c-.094-.079-.169-.154-.194-.18l2.121-2.12.016.015.003.003a.56.56 0 0 0-.025-.022l-1.92 2.304Zm-.286-.28-.014-.017 2.304-1.921.015.018-2.305 1.92Zm-.362-.978v-.014h3v.014h-3Zm.319.91-.053-.067 2.362-1.85.053.068-2.362 1.85Zm-.372-.992v-.018h3v.018h-3Zm.252.815c-.01-.017-.063-.094-.113-.183l2.623-1.457a.866.866 0 0 0-.016-.028l-.008-.012.001.002.01.013-2.497 1.665Zm-.143-.241-.015-.03 2.683-1.341.015.03-2.683 1.341Zm.018.034a1.967 1.967 0 0 1-.148-.334l2.843-.959c-.02-.06-.047-.12-.078-.175l-2.617 1.468Zm-.227-.813v-.021h3v.02h-3Zm.006-.15a1.378 1.378 0 0 0 0 .236l2.989-.256a1.62 1.62 0 0 1 0 .277l-2.99-.256Zm.058.54-.018-.06 2.874-.861.017.058-2.873.862Zm1.419-.49h-1.5V15.11h3V15.139h-1.5Zm-1.5-.03v-.023h3v.023h-3Zm0-.023V15.018h3V15.086h-3Zm3-.068v.21h-3v-.21h3Zm-2.994.35a5.717 5.717 0 0 1-.002-.563c.003-.094.008-.2.015-.297a3.048 3.048 0 0 1 .04-.306c.006-.032.034-.17.105-.328l2.738 1.224a1.46 1.46 0 0 0 .108-.369l.002-.014-.001.014a3.073 3.073 0 0 0-.008.175 8.657 8.657 0 0 0-.005.258v-.002a.996.996 0 0 0-.005-.073l-2.987.28Zm.158-1.494c.134-.3.342-.559.606-.754l1.783 2.413c.152-.112.272-.262.35-.435l-2.74-1.224Z" mask="url(#c)"/></svg>