<svg width="24" height="24" viewBox="0 0 24 24" fill="none" xmlns="http://www.w3.org/2000/svg">
  <path d="M9.38831 14.6559C8.17955 14.6559 7.06422 14.6379 5.95181 14.6619C5.26568 14.677 4.97079 14.382 5.00291 13.6745C5.0321 13.0483 5.00875 12.4221 5.00875 11.7959C5.01167 10.7361 5.1197 10.6217 6.12408 10.6187C7.18685 10.6157 8.24962 10.6187 9.38831 10.6187C9.38831 9.77575 9.35327 9.00203 9.40583 8.23432C9.42626 7.92423 9.58685 7.42447 9.77955 7.37028C10.0511 7.29201 10.4949 7.45759 10.7168 7.68037C12.1358 9.08632 13.5109 10.5404 14.9095 11.9705C15.3708 12.4401 15.3416 12.8646 14.892 13.3222C13.508 14.7342 12.1504 16.1703 10.7518 17.5612C10.5241 17.7869 10.0657 18.0097 9.82627 17.9194C9.60145 17.8351 9.4321 17.3414 9.40583 17.0132C9.34743 16.2666 9.38831 15.5139 9.38831 14.6559Z" fill="#004F9E"/>
  <path d="M18.9971 12.4372C18.9971 13.3133 19.0088 14.1924 18.9942 15.0684C18.9679 16.655 17.8555 17.787 16.3051 17.8141C15.6745 17.8262 15.0409 17.7991 14.4102 17.8201C13.7445 17.8442 13.765 17.3956 13.7621 16.917C13.7562 16.4232 13.7737 16.0017 14.4278 16.0318C15.0088 16.0559 15.5927 16.0469 16.1767 16.0318C16.9387 16.0108 17.2569 15.7067 17.2657 14.939C17.2832 13.2591 17.2803 11.5822 17.2657 9.90226C17.2599 9.12252 16.9475 8.80941 16.2 8.78834C15.5927 8.77028 14.9854 8.77329 14.3781 8.78533C13.692 8.79737 13.7767 8.30363 13.765 7.84903C13.7533 7.3854 13.7767 6.98499 14.3869 7.00004C15.1168 7.01811 15.8467 6.97897 16.5737 7.01811C17.8642 7.09036 18.9416 8.2374 18.9854 9.57712C19.0175 10.5285 18.9913 11.4798 18.9913 12.4342C18.9942 12.4372 18.9942 12.4372 18.9971 12.4372Z" fill="#004F9E"/>
  </svg>
