<svg width="24" height="24" viewBox="0 0 24 24" fill="none" xmlns="http://www.w3.org/2000/svg">
  <path d="M12.0139 10.1874C12.6922 10.1874 13.3705 10.2236 14.0458 10.1753C14.5221 10.1422 14.6306 10.3232 14.6608 10.7575C14.7211 11.6112 14.718 12.4589 14.6457 13.3126C14.6155 13.6776 14.5281 13.8254 14.1211 13.8194C12.6922 13.7922 11.2603 13.7983 9.83131 13.8164C9.4786 13.8194 9.3339 13.7168 9.33993 13.3548C9.355 12.4529 9.35198 11.5479 9.33691 10.6459C9.33088 10.2839 9.47558 10.1723 9.8283 10.1844C10.5578 10.2025 11.2844 10.1874 12.0139 10.1874Z" fill="#D4AF37" />
  <path d="M11.9808 9.28245C11.3538 9.28245 10.7207 9.24022 10.0997 9.29452C9.55705 9.34278 9.5269 9.09844 9.61131 8.68818C9.82535 7.64444 10.166 6.65198 10.778 5.77415C11.4955 4.74851 12.5204 4.73946 13.2349 5.76209C13.877 6.68215 14.2418 7.71684 14.4287 8.82393C14.489 9.18592 14.3986 9.3096 14.0157 9.2915C13.3374 9.25832 12.6591 9.28245 11.9808 9.28245Z" fill="#D4AF37" />
  <path d="M12.008 14.7123C12.6591 14.7123 13.3133 14.7334 13.9645 14.7032C14.3594 14.6851 14.4981 14.7937 14.4227 15.198C14.2147 16.3231 13.8559 17.391 13.1746 18.3141C12.5205 19.198 11.5648 19.2311 10.9016 18.3774C10.163 17.4272 9.78618 16.3141 9.59324 15.1316C9.53898 14.8058 9.63243 14.6942 9.97309 14.7063C10.6514 14.7274 11.3297 14.7123 12.008 14.7123Z" fill="#D4AF37" />
  <path d="M8.39943 11.9944C8.39943 12.0939 8.39943 12.1935 8.39943 12.296C8.42957 13.8073 8.42957 13.8073 6.87703 13.8073C6.82578 13.8073 6.77755 13.8073 6.7263 13.8073C5.10442 13.8073 5.10442 13.8073 5.02604 12.1874C4.93259 10.2598 4.99589 10.1784 6.871 10.1935C7.38952 10.1965 8.07686 9.95516 8.37531 10.3141C8.61648 10.6067 8.40847 11.2704 8.39943 11.7711C8.39641 11.8435 8.39943 11.919 8.39943 11.9944Z" fill="#D4AF37" />
  <path d="M15.6256 11.8435C15.6769 11.376 15.3302 10.6037 15.6949 10.299C16.0416 10.0094 16.7923 10.1934 17.3651 10.1904C18.8935 10.1844 18.8935 10.1874 18.9869 11.7379C18.993 11.8375 19.005 11.937 19.005 12.0396C18.9869 13.8103 18.9869 13.8194 17.2505 13.8043C16.7049 13.7983 15.9844 14.0426 15.6648 13.6897C15.4055 13.4031 15.6196 12.6912 15.6226 12.1693C15.6256 12.0909 15.6256 12.0155 15.6256 11.8435Z" fill="#D4AF37" />
  <path d="M14.1544 5.44531C15.8305 5.72284 17.6845 7.39705 18.4231 9.28242C17.5067 9.28242 16.6174 9.27638 15.731 9.28543C15.511 9.28845 15.4145 9.18588 15.3753 8.98981C15.1191 7.7711 14.8025 6.57653 14.1544 5.44531Z" fill="#D4AF37" />
  <path d="M9.83434 18.5705C7.85372 17.934 6.44287 16.6882 5.55054 14.7123C6.50919 14.7123 7.37741 14.7214 8.24563 14.7063C8.54408 14.7003 8.62547 14.8541 8.67974 15.1015C8.92995 16.293 9.20428 17.4816 9.83434 18.5705Z" fill="#D4AF37" />
  <path d="M18.4111 14.7124C17.8142 16.468 15.8848 18.2237 14.1604 18.5645C14.7513 17.4122 15.1914 16.2599 15.3693 15.0231C15.4145 14.7154 15.6195 14.7063 15.8637 14.7093C16.6897 14.7154 17.5187 14.7124 18.4111 14.7124Z" fill="#D4AF37" />
  <path d="M9.74988 5.47247C9.22231 6.5675 8.91783 7.69872 8.68571 8.84804C8.61939 9.17986 8.48071 9.30053 8.13403 9.29148C7.30802 9.26734 6.482 9.28243 5.56555 9.28243C6.40061 7.33673 7.80242 6.11802 9.74988 5.47247Z" fill="#D4AF37" />
</svg>
