<svg width="24" height="24" viewBox="0 0 24 24" fill="none" xmlns="http://www.w3.org/2000/svg">
  <path d="M11.9935 17.9963C9.66132 17.9963 7.32916 17.9996 4.99366 17.9963C3.559 17.993 3.02184 17.4554 3.00849 16.0397C3.00182 15.2885 2.99181 14.5372 3.01183 13.7893C3.03852 12.624 3.60905 12.0264 4.76345 12.023C9.5679 12.0097 14.3723 12.0097 19.1768 12.023C20.3946 12.0264 20.9685 12.6107 20.9918 13.8093C21.0052 14.5873 21.0018 15.3653 20.9918 16.1432C20.9751 17.4053 20.4113 17.9863 19.1534 17.993C16.7679 18.003 14.3824 17.9963 11.9935 17.9963ZM16.0139 15.0213C15.9571 14.4137 15.6302 14.0297 15.0229 14.0163C14.409 13.9996 14.032 14.387 14.0187 14.988C14.0087 15.589 14.3723 15.9863 14.9862 15.993C15.5968 15.9996 15.9305 15.6257 16.0139 15.0213ZM19.0133 14.9713C18.9266 14.3703 18.5862 13.9996 17.979 14.013C17.3651 14.0297 17.0048 14.427 17.0215 15.028C17.0415 15.629 17.4218 16.0097 18.0357 15.9863C18.643 15.9696 18.9666 15.5856 19.0133 14.9713Z" fill="#00ACC1" />
  <path d="M20.318 10.9879C14.7596 10.9879 9.33119 10.9879 3.73935 10.9879C4.13305 10.3769 4.46335 9.8527 4.80367 9.33517C5.35084 8.50044 5.91136 7.6724 6.44852 6.83099C6.80886 6.26338 7.30932 6.00295 7.97661 6.00295C10.6691 6.00629 13.3583 5.98291 16.0507 6.02966C16.4745 6.03634 17.0583 6.22999 17.2886 6.54051C18.3329 7.9562 19.2837 9.44869 20.318 10.9879Z" fill="#00ACC1" />
</svg>
