<svg width="24" height="24" viewBox="0 0 24 24" fill="none" xmlns="http://www.w3.org/2000/svg">
  <path d="M15.7885 9.11448C15.3494 9.3574 14.8171 9.51287 14.481 9.85296C12.4915 11.8773 10.5651 13.96 8.56559 15.9778C8.24952 16.2985 7.68726 16.4864 7.21482 16.5447C6.45293 16.6354 5.66776 16.5511 4.89256 16.5771C4.30036 16.5965 4.05083 16.3924 4.04418 15.7835C4.02754 14.1673 4.00425 14.1154 5.70103 14.1899C6.66919 14.232 7.33459 13.9503 7.98004 13.2344C9.64354 11.3947 11.4202 9.65215 13.0937 7.82213C13.7125 7.14195 14.3446 6.72412 15.2995 6.87635C15.5091 6.90874 15.732 6.88283 16.0347 6.88283C16.0347 6.46824 15.9715 6.11196 16.0547 5.7913C16.1279 5.50627 16.3076 5.15646 16.5471 5.03338C16.7334 4.93621 17.1626 5.06577 17.3522 5.2342C18.1674 5.96297 18.9392 6.73708 19.7144 7.50795C20.1203 7.91282 20.0704 8.32417 19.6712 8.71285C18.9292 9.43838 18.204 10.1833 17.4288 10.87C17.2158 11.0579 16.7634 11.2328 16.5704 11.1356C16.3175 11.0093 16.1445 10.6206 16.058 10.3129C15.9749 10.0182 16.0414 9.6813 16.0414 9.36388C15.9549 9.27967 15.8717 9.19545 15.7885 9.11448Z" fill="#D4AF37"/>
  <path d="M13.2932 12.5479C14.2714 13.0467 14.5475 14.4751 16.038 14.0962C16.038 13.7593 15.9748 13.3998 16.058 13.0791C16.1312 12.7941 16.3075 12.4443 16.5437 12.318C16.73 12.2208 17.1625 12.3439 17.3488 12.5123C18.1806 13.2605 18.9791 14.0443 19.7609 14.8444C20.1702 15.2622 20.0071 15.6768 19.6245 16.046C18.9159 16.7294 18.2438 17.4452 17.4986 18.0866C17.249 18.3003 16.7433 18.4947 16.5104 18.3878C16.2576 18.2712 16.1445 17.795 16.048 17.4582C15.9781 17.212 16.0347 16.9335 16.0347 16.5124C13.759 17.1635 12.9905 15.3755 11.7462 14.1447C12.2685 13.6006 12.7742 13.0824 13.2932 12.5479Z" fill="#D4AF37"/>
  <path d="M10.3222 9.29275C9.75661 9.86929 9.25091 10.3875 8.62543 11.0256C7.77039 9.37697 6.36306 9.0725 4.71286 9.24741C4.51989 9.26684 4.114 8.87493 4.08406 8.64496C3.87445 6.91212 3.93767 6.99633 5.70098 6.8441C7.4144 6.69834 8.70195 7.14532 9.63684 8.55751C9.79654 8.80043 10.0394 8.99153 10.3222 9.29275Z" fill="#D4AF37"/>
  </svg>
