<svg width="24" height="24" viewBox="0 0 24 24" fill="none" xmlns="http://www.w3.org/2000/svg">
  <path d="M21.4556 14.4649C21.4369 14.4649 21.4369 14.4649 21.4556 14.4649H21.4369C21.4181 14.4649 21.3993 14.4649 21.3993 14.4467C21.3618 14.4467 21.3243 14.4286 21.2867 14.4286C21.1553 14.4104 21.0427 14.3922 20.9301 14.3922C20.8738 14.3922 20.8174 14.3922 20.7424 14.3741H20.7236C20.3294 14.3377 20.0103 14.3014 19.71 14.2105C19.5786 14.156 19.541 14.0834 19.5035 14.0107C19.5035 13.9925 19.4847 13.9925 19.4847 13.9743L19.2407 13.9017C19.3533 13.0659 19.3158 12.1937 19.1093 11.3398C18.9028 10.4858 18.5462 9.68635 18.0582 8.95957L18.2459 8.79605V8.75971C18.2459 8.66886 18.2646 8.57802 18.3397 8.48717C18.565 8.2873 18.8465 8.12378 19.1844 7.92392C19.2407 7.88758 19.297 7.86941 19.3533 7.83307C19.466 7.77856 19.5598 7.72405 19.6724 7.65137C19.6912 7.63321 19.7287 7.61504 19.7663 7.5787C19.7851 7.56053 19.8038 7.56053 19.8038 7.54236C20.0666 7.32433 20.1229 6.96094 19.9352 6.72473C19.8414 6.59755 19.6724 6.52487 19.5035 6.52487C19.3533 6.52487 19.2219 6.57938 19.0905 6.67023C19.0718 6.6884 19.0718 6.68839 19.053 6.70656C19.0155 6.72473 18.9967 6.76107 18.9591 6.77924C18.8653 6.87009 18.7902 6.94277 18.7151 7.03361C18.6776 7.06995 18.64 7.12446 18.5837 7.1608C18.3209 7.43334 18.0769 7.65137 17.8329 7.8149C17.7766 7.85124 17.7203 7.86941 17.664 7.86941C17.6264 7.86941 17.5889 7.86941 17.5513 7.85124H17.5138L17.2886 7.99659C17.0445 7.74222 16.7818 7.52419 16.519 7.30616C15.3927 6.45219 14.0225 5.92528 12.5959 5.79809L12.5771 5.56189C12.5583 5.54372 12.5583 5.54372 12.5396 5.52555C12.4833 5.47104 12.4082 5.41653 12.3894 5.28935C12.3706 4.99864 12.4082 4.67159 12.4457 4.3082V4.29003C12.4457 4.23552 12.4645 4.16284 12.4833 4.10834C12.502 3.99932 12.5208 3.8903 12.5396 3.76312V3.6541V3.59959C12.5396 3.27254 12.2768 3 11.9577 3C11.8075 3 11.6574 3.07268 11.5447 3.18169C11.4321 3.29071 11.3758 3.43607 11.3758 3.59959V3.63593V3.74495C11.3758 3.87213 11.3946 3.98115 11.4321 4.09017C11.4509 4.14467 11.4509 4.19918 11.4696 4.27186V4.29003C11.5072 4.65342 11.5635 4.98047 11.526 5.27118C11.5072 5.39837 11.4321 5.45287 11.3758 5.50738C11.357 5.52555 11.357 5.52555 11.3383 5.54372L11.3195 5.77992C10.9816 5.81626 10.6437 5.8526 10.3059 5.92528C8.86052 6.23416 7.58411 6.94277 6.58927 7.96025L6.40156 7.83307H6.36402C6.32648 7.83307 6.28894 7.85124 6.25139 7.85124C6.19508 7.85124 6.13877 7.83307 6.08246 7.79673C5.83844 7.63321 5.59442 7.397 5.33163 7.12446C5.29409 7.08812 5.25655 7.03361 5.20024 6.99727C5.12515 6.90643 5.05007 6.83375 4.95622 6.7429C4.93745 6.72473 4.8999 6.70656 4.86236 6.67023C4.84359 6.65206 4.82482 6.65206 4.82482 6.63389C4.7122 6.54304 4.56203 6.48853 4.41187 6.48853C4.24293 6.48853 4.07399 6.56121 3.98014 6.6884C3.79243 6.9246 3.84875 7.28799 4.11154 7.50602C4.13031 7.50602 4.13031 7.52419 4.14908 7.52419C4.18662 7.54236 4.20539 7.5787 4.24293 7.59687C4.35555 7.66954 4.44941 7.72405 4.56203 7.77856C4.61834 7.79673 4.67466 7.83307 4.73097 7.86941C5.06884 8.06927 5.3504 8.2328 5.57565 8.43266C5.6695 8.52351 5.6695 8.61435 5.6695 8.7052V8.74154L5.85721 8.90507C5.81967 8.95957 5.78213 8.99591 5.76336 9.05042C4.82482 10.4858 4.46818 12.1756 4.7122 13.8472L4.46818 13.9198C4.46818 13.938 4.44941 13.938 4.44941 13.9562C4.41187 14.0288 4.35555 14.1015 4.24293 14.156C3.96137 14.2469 3.6235 14.2832 3.22931 14.3196H3.21054C3.15423 14.3196 3.07915 14.3196 3.02284 14.3377C2.91021 14.3377 2.79759 14.3559 2.66619 14.3741C2.62865 14.3741 2.59111 14.3922 2.55357 14.3922C2.5348 14.3922 2.51603 14.3922 2.49726 14.4104C2.15938 14.4831 1.95291 14.792 2.00922 15.0827C2.06553 15.337 2.30955 15.5006 2.60988 15.5006C2.66619 15.5006 2.70373 15.5006 2.76005 15.4824C2.77882 15.4824 2.79759 15.4824 2.79759 15.4642C2.83513 15.4642 2.87267 15.4461 2.91021 15.4461C3.04161 15.4097 3.13546 15.3734 3.24808 15.3189C3.3044 15.3007 3.36071 15.2644 3.41702 15.2462H3.43579C3.79243 15.119 4.11154 15.01 4.41187 14.9737H4.44941C4.56203 14.9737 4.63711 15.0282 4.69343 15.0645C4.7122 15.0645 4.7122 15.0827 4.73097 15.0827L4.99376 15.0463C5.44425 16.3909 6.30771 17.5901 7.45272 18.4622C7.71551 18.6621 7.9783 18.8256 8.25986 18.9891L8.14723 19.2253C8.14723 19.2435 8.166 19.2435 8.166 19.2616C8.20355 19.3343 8.24109 19.4252 8.20355 19.5524C8.09092 19.8249 7.92198 20.0974 7.71551 20.4063V20.4245C7.67797 20.479 7.64042 20.5153 7.60288 20.5698C7.5278 20.6607 7.47149 20.7515 7.39641 20.8606C7.37764 20.8787 7.35886 20.9151 7.34009 20.9514C7.34009 20.9696 7.32132 20.9877 7.32132 20.9877C7.17116 21.2966 7.28378 21.6418 7.56534 21.769C7.64042 21.8054 7.71551 21.8235 7.79059 21.8235C8.01584 21.8235 8.24109 21.6782 8.35371 21.4783C8.35371 21.4601 8.37248 21.442 8.37248 21.442C8.39125 21.4056 8.41002 21.3693 8.42879 21.3511C8.48511 21.2239 8.50388 21.1331 8.54142 21.0241C8.56019 20.9696 8.57896 20.9151 8.59773 20.8606C8.72912 20.4972 8.82298 20.2065 8.99191 19.9521C9.067 19.8431 9.16085 19.8249 9.23593 19.7886C9.2547 19.7886 9.2547 19.7886 9.27347 19.7704L9.40487 19.5342C10.2308 19.8431 11.1318 20.0066 12.0328 20.0066C12.5771 20.0066 13.1402 19.9521 13.6658 19.8249C14.0037 19.7522 14.3228 19.6614 14.6419 19.5524L14.7545 19.7522C14.7733 19.7522 14.7733 19.7522 14.7921 19.7704C14.8859 19.7886 14.961 19.8249 15.0361 19.9339C15.1862 20.1883 15.2989 20.4972 15.4303 20.8424V20.8606C15.449 20.9151 15.4678 20.9696 15.4866 21.0241C15.5241 21.1331 15.5429 21.2421 15.5992 21.3511C15.618 21.3875 15.6367 21.4056 15.6555 21.442C15.6555 21.4601 15.6743 21.4783 15.6743 21.4783C15.7869 21.6963 16.0122 21.8235 16.2374 21.8235C16.3125 21.8235 16.3876 21.8054 16.4626 21.769C16.594 21.6963 16.7067 21.5873 16.7442 21.442C16.7817 21.2966 16.7817 21.1331 16.7067 20.9877C16.7067 20.9696 16.6879 20.9696 16.6879 20.9514C16.6691 20.9151 16.6504 20.8787 16.6316 20.8606C16.5753 20.7515 16.5002 20.6607 16.4251 20.5698C16.3876 20.5153 16.35 20.479 16.3125 20.4245V20.4063C16.106 20.0974 15.9183 19.8249 15.8244 19.5524C15.7869 19.4252 15.8244 19.3525 15.8432 19.2616C15.8432 19.2435 15.862 19.2435 15.862 19.2253L15.7681 19.0073C16.763 18.444 17.6077 17.6446 18.2459 16.6634C18.5837 16.1547 18.8465 15.5914 19.0342 15.0282L19.2595 15.0645C19.2782 15.0645 19.2782 15.0463 19.297 15.0463C19.3721 15.01 19.4284 14.9555 19.541 14.9555H19.5786C19.8789 14.9918 20.198 15.1008 20.5547 15.228H20.5734C20.6297 15.2462 20.6861 15.2825 20.7424 15.3007C20.855 15.3552 20.9488 15.3916 21.0802 15.4279C21.1178 15.4279 21.1553 15.4461 21.1929 15.4461C21.2116 15.4461 21.2304 15.4461 21.2492 15.4642C21.3055 15.4824 21.343 15.4824 21.3993 15.4824C21.6809 15.4824 21.9249 15.3007 22 15.0645C22 14.8465 21.7935 14.5558 21.4556 14.4649ZM12.7648 13.5746L11.9389 13.9562L11.113 13.5746L10.9065 12.7206L11.4696 12.0302H12.3894L12.9525 12.7206L12.7648 13.5746ZM17.664 11.685C17.8141 12.3028 17.8517 12.9205 17.7954 13.5201L14.9235 12.7206C14.6607 12.648 14.5105 12.3936 14.5668 12.1392C14.5856 12.0665 14.6231 11.9939 14.6794 11.9394L16.9507 9.95889C17.2698 10.4676 17.5138 11.0491 17.664 11.685ZM16.0497 8.86873L13.5907 10.5585C13.3843 10.6857 13.1027 10.6493 12.9338 10.4495C12.8774 10.395 12.8587 10.3223 12.8399 10.2496L12.671 7.28799C13.9661 7.43334 15.1487 7.99659 16.0497 8.86873ZM10.6062 7.37883C10.8127 7.34249 11.0004 7.30616 11.2069 7.26982L11.0379 10.1769C11.0191 10.4313 10.8127 10.6493 10.5311 10.6493C10.456 10.6493 10.3622 10.6312 10.3059 10.5948L7.80936 8.86873C8.57896 8.12378 9.53626 7.61504 10.6062 7.37883ZM6.90837 9.95889L9.14208 11.8849C9.34856 12.0484 9.36733 12.3573 9.19839 12.5571C9.14208 12.6298 9.067 12.6843 8.97314 12.7025L6.06369 13.5201C5.95106 12.2846 6.23262 11.0309 6.90837 9.95889ZM6.40156 14.8828L9.3861 14.3922C9.63012 14.3741 9.85537 14.5376 9.91168 14.7738C9.93045 14.8828 9.93045 14.9737 9.89291 15.0645L8.7479 17.7354C7.69674 17.0813 6.85206 16.082 6.40156 14.8828ZM13.2529 18.4985C12.8211 18.5894 12.3894 18.6439 11.9389 18.6439C11.2819 18.6439 10.6437 18.5349 10.0431 18.3532L11.526 15.7549C11.6761 15.5914 11.9201 15.5187 12.1266 15.6278C12.2205 15.6823 12.2956 15.7549 12.3519 15.8276L13.7972 18.3532C13.6283 18.4077 13.4406 18.444 13.2529 18.4985ZM16.9131 15.973C16.4439 16.6998 15.8244 17.2812 15.1112 17.7354L13.9286 14.9918C13.8723 14.7738 13.9661 14.5376 14.1914 14.4286C14.2665 14.3922 14.3603 14.3741 14.4542 14.3741L17.4575 14.8646C17.3449 15.2644 17.1572 15.6278 16.9131 15.973Z" fill="#78909C" />
</svg>
