<svg width="24" height="24" viewBox="0 0 24 24" fill="none" xmlns="http://www.w3.org/2000/svg">
  <path d="M6.66667 6.53333C6.66667 6.23878 6.90545 6 7.2 6H16.8C17.0946 6 17.3333 6.23878 17.3333 6.53333V9.73333C17.3333 10.0279 17.0946 10.2667 16.8 10.2667H7.2C6.90545 10.2667 6.66667 10.0279 6.66667 9.73333V6.53333Z" fill="#D4AF37"/>
  <path d="M4 16.1333C4 15.8388 4.23878 15.6 4.53333 15.6H7.73333C8.02789 15.6 8.26667 15.8388 8.26667 16.1333V19.3333C8.26667 19.6279 8.02789 19.8667 7.73333 19.8667H4.53333C4.23878 19.8667 4 19.6279 4 19.3333V16.1333Z" fill="#D4AF37"/>
  <path d="M9.86662 16.1333C9.86662 15.8388 10.1054 15.6 10.3999 15.6H13.5999C13.8945 15.6 14.1333 15.8388 14.1333 16.1333V19.3333C14.1333 19.6279 13.8945 19.8667 13.5999 19.8667H10.3999C10.1054 19.8667 9.86662 19.6279 9.86662 19.3333V16.1333Z" fill="#D4AF37"/>
  <path d="M15.7333 16.1333C15.7333 15.8388 15.9721 15.6 16.2667 15.6H19.4667C19.7612 15.6 20 15.8388 20 16.1333V19.3333C20 19.6279 19.7612 19.8667 19.4667 19.8667H16.2667C15.9721 19.8667 15.7333 19.6279 15.7333 19.3333V16.1333Z" fill="#D4AF37"/>
  <path d="M5.6 13.4667H6.66667V19.2533H5.6V13.4667Z" fill="#D4AF37"/>
  <path d="M5.6 13.4667V12.4L17.8667 12.4V13.4667L5.6 13.4667Z" fill="#D4AF37"/>
  <path d="M11.4667 9.2H12.5333V15.8133H11.4667V9.2Z" fill="#D4AF37"/>
  <path d="M17.3333 12.4H18.4V17.7333H17.3333V12.4Z" fill="#D4AF37"/>
  </svg>
