<svg width="24" height="24" viewBox="0 0 24 24" fill="none" xmlns="http://www.w3.org/2000/svg">
  <path d="M12.0351 6.00138C13.7617 6.00138 15.4883 5.99828 17.2149 6.00138C18.5238 6.00448 18.9942 6.49136 18.9971 7.84966C19 10.9477 19 14.0457 18.9971 17.1438C18.9942 18.5052 18.5267 18.9952 17.2179 18.9952C13.7383 18.9983 10.2617 18.9983 6.78214 18.9952C5.44992 18.9952 5 18.5083 5 17.0694C5 14.0271 5 10.9787 5.00292 7.93339C5.00292 6.46655 5.44992 6.00448 6.85518 6.00138C8.5818 6.00138 10.3084 6.00138 12.0351 6.00138ZM13.2679 10.5291C14.1152 10.5291 14.9624 10.5197 15.8126 10.5322C16.3881 10.5415 16.3969 10.1507 16.3998 9.70415C16.4028 9.24828 16.3677 8.88234 15.8009 8.88854C14.1532 8.90095 12.5054 8.90405 10.8577 8.88854C10.3114 8.88234 10.2266 9.20486 10.2266 9.67934C10.2295 10.1631 10.2617 10.5539 10.8694 10.5353C11.6699 10.5104 12.4674 10.5291 13.2679 10.5291ZM13.3351 13.3201C14.159 13.3201 14.9829 13.3077 15.8068 13.3232C16.3765 13.3356 16.4028 12.9541 16.4028 12.5045C16.4028 12.0548 16.3823 11.6765 15.8097 11.6827C14.1619 11.6951 12.5142 11.6982 10.8664 11.6796C10.326 11.6734 10.2237 11.9804 10.2295 12.4642C10.2354 12.9417 10.25 13.3449 10.8635 13.3263C11.6874 13.3015 12.5113 13.3201 13.3351 13.3201ZM13.2826 16.1111C14.0831 16.1111 14.8836 16.0832 15.6811 16.1204C16.2859 16.1483 16.4144 15.8382 16.4086 15.2738C16.4057 14.7435 16.283 14.4582 15.7162 14.4675C14.1181 14.4923 12.5171 14.4923 10.919 14.4675C10.3523 14.4582 10.2295 14.7466 10.2237 15.2738C10.2179 15.8351 10.3493 16.1483 10.9541 16.1204C11.7283 16.0832 12.5054 16.1111 13.2826 16.1111ZM8.49124 8.55672C7.88063 8.55672 7.39274 9.08392 7.40442 9.73206C7.41319 10.3492 7.88063 10.8485 8.4591 10.864C9.07554 10.8826 9.5722 10.3771 9.58097 9.72585C9.58681 9.07151 9.10768 8.55672 8.49124 8.55672ZM9.58097 12.5169C9.58681 11.8625 9.10768 11.3447 8.49124 11.3478C7.88063 11.3509 7.39566 11.8749 7.40735 12.5262C7.41903 13.1433 7.88356 13.6395 8.46494 13.6581C9.07554 13.6736 9.5722 13.1681 9.58097 12.5169ZM8.51169 14.1388C7.89816 14.1295 7.40442 14.6412 7.40442 15.2924C7.40442 15.9095 7.86018 16.4212 8.43865 16.446C9.05509 16.4739 9.56344 15.9778 9.58097 15.3327C9.5985 14.6784 9.12521 14.1481 8.51169 14.1388Z" fill="#57CA81"/>
  </svg>
