<svg width="13" height="10" viewBox="0 0 13 10" fill="none" xmlns="http://www.w3.org/2000/svg">
<path fill-rule="evenodd" clip-rule="evenodd" d="M2.1665 0.840584C1.06193 0.840584 0.166504 1.73601 0.166504 2.84058V7.56039C0.166504 8.66496 1.06194 9.56039 2.16651 9.56039H10.8332C11.9377 9.56039 12.8332 8.66496 12.8332 7.56039V2.84058C12.8332 1.73601 11.9377 0.840584 10.8332 0.840584H2.1665ZM4.05887 5.92714C4.45965 5.92714 4.78456 5.6018 4.78456 5.20049C4.78456 4.79917 4.45965 4.47384 4.05887 4.47384C3.65808 4.47384 3.33317 4.79917 3.33317 5.20049C3.33317 5.6018 3.65808 5.92714 4.05887 5.92714ZM7.32447 5.20049C7.32447 5.6018 6.99957 5.92714 6.59878 5.92714C6.19799 5.92714 5.87308 5.6018 5.87308 5.20049C5.87308 4.79917 6.19799 4.47384 6.59878 4.47384C6.99957 4.47384 7.32447 4.79917 7.32447 5.20049ZM9.13872 5.92714C9.53951 5.92714 9.86441 5.6018 9.86441 5.20049C9.86441 4.79917 9.53951 4.47384 9.13872 4.47384C8.73793 4.47384 8.41302 4.79917 8.41302 5.20049C8.41302 5.6018 8.73793 5.92714 9.13872 5.92714Z" fill="#AF26FA"/>
</svg>
