<svg width="24" height="24" viewBox="0 0 24 24" fill="none" xmlns="http://www.w3.org/2000/svg">
  <path d="M11.8785 13.175C12.9899 12.0595 13.9539 11.0869 14.9939 10.0429C14.6323 9.66362 14.1949 9.31115 13.9048 8.86498C13.6861 8.52589 13.4763 7.99049 13.5969 7.66925C13.7084 7.37032 14.2574 7.07139 14.6234 7.05354C16.1097 6.98661 17.6004 6.97323 19.0822 7.06693C19.3991 7.08477 19.9169 7.61125 19.9347 7.92357C20.024 9.40485 20.0151 10.895 19.9481 12.3808C19.9303 12.7466 19.6312 13.291 19.3277 13.407C19.0064 13.5274 18.4574 13.3267 18.1405 13.0947C17.7343 12.7957 17.4576 12.3183 17.0291 11.8052C15.708 13.1348 14.5431 14.3216 13.3603 15.495C12.2311 16.6194 11.7 16.6149 10.5618 15.4995C9.76736 14.7187 8.97736 13.9245 8.18736 13.1437C8.13826 13.0947 8.06239 13.0723 7.88832 12.9787C7.33041 13.5007 6.71448 14.0271 6.16549 14.6116C5.48708 15.3344 5.07199 14.8124 4.61674 14.3528C4.16148 13.8978 3.63481 13.4873 4.3534 12.8046C5.18804 12.0105 5.95572 11.1449 6.78143 10.3463C7.64284 9.51193 8.24538 9.49854 9.09787 10.324C10.0307 11.2252 10.9144 12.18 11.8785 13.175Z" fill="#57CA81" />
</svg>
