<svg width="24" height="24" viewBox="0 0 24 24" fill="none" xmlns="http://www.w3.org/2000/svg">
<path d="M11.9879 6.00276C14.0172 6.00276 16.0465 5.99655 18.0725 6.00586C19.4376 6.01206 19.9917 6.52985 19.995 7.80108C20.0017 10.9513 20.0017 14.1014 19.995 17.2485C19.9917 18.467 19.4243 18.991 18.1025 18.9941C14.0172 19.0003 9.93189 19.0034 5.84657 18.9941C4.58827 18.991 4.01419 18.4546 4.00751 17.2764C3.9975 14.1014 3.9975 10.9265 4.00751 7.75148C4.01419 6.52675 4.58159 6.00896 5.90331 6.00276C7.93262 5.99655 9.96193 6.00276 11.9879 6.00276ZM18.4864 9.98078C14.114 9.98078 9.82508 9.98078 5.55953 9.98078C5.55953 12.5605 5.55953 15.075 5.55953 17.5741C9.90519 17.5741 14.1741 17.5741 18.4864 17.5741C18.4864 15.0254 18.4864 12.5263 18.4864 9.98078ZM13.8437 7.37011C12.5119 7.37011 11.1835 7.38561 9.85179 7.3639C9.27437 7.3546 8.9673 7.50343 8.97731 8.09874C8.98399 8.64754 9.25768 8.80257 9.80172 8.79947C12.4352 8.78396 15.0686 8.78707 17.702 8.79637C18.2294 8.79947 18.5298 8.67234 18.5398 8.10494C18.5498 7.50343 18.2394 7.3577 17.6686 7.3639C16.3936 7.38251 15.1186 7.37011 13.8437 7.37011ZM6.52746 8.78086C7.08151 8.83357 7.53544 8.78706 7.52876 8.05533C7.51875 7.28639 6.97471 7.38561 6.45069 7.36701C5.90665 7.3484 5.47609 7.38251 5.46941 8.06773C5.46274 8.79947 5.92668 8.83667 6.52746 8.78086Z" fill="#FF5722"/>
</svg>
