<svg width="24" height="24" viewBox="0 0 24 24" fill="none" xmlns="http://www.w3.org/2000/svg">
  <path d="M14.9728 12.2C14.4975 12.2 14.0503 11.9469 13.8084 11.5419L12 8.54378L10.1944 11.5419C9.94968 11.9497 9.50249 12.2028 9.02718 12.2028C8.90062 12.2028 8.77405 12.186 8.65312 12.1494L4.8 11.0469V16.0532C4.8 16.4666 5.08125 16.8266 5.48062 16.925L11.5612 18.4466C11.8481 18.5169 12.149 18.5169 12.4331 18.4466L18.5194 16.925C18.9187 16.8238 19.2 16.4638 19.2 16.0532V11.0469L15.3469 12.1466C15.2259 12.1832 15.0994 12.2 14.9728 12.2ZM20.9522 9.0444L19.5037 6.15315C19.4165 5.97878 19.2281 5.87753 19.034 5.90284L12 6.80003L14.579 11.0778C14.6859 11.255 14.8997 11.3394 15.0994 11.2832L20.6653 9.69409C20.9437 9.61253 21.0787 9.30315 20.9522 9.0444ZM4.49625 6.15315L3.04781 9.0444C2.91844 9.30315 3.05625 9.61253 3.33187 9.69128L8.8978 11.2803C9.09749 11.3366 9.31124 11.2522 9.41812 11.075L12 6.80003L4.96312 5.90284C4.76906 5.88034 4.58344 5.97878 4.49625 6.15315Z" fill="#5FD5F9" />
</svg>
