<svg width="24" height="24" viewBox="0 0 24 24" fill="none" xmlns="http://www.w3.org/2000/svg">
  <path d="M6.00342 9.81777C5.97129 8.59975 6.15335 8.31141 7.06902 7.92606C8.46661 7.33861 9.86955 6.76463 11.2618 6.16371C11.7678 5.94543 12.2337 5.94543 12.7397 6.16371C14.1935 6.78888 15.6554 7.3952 17.1199 7.99613C17.6473 8.2117 17.99 8.57549 17.9981 9.14947C18.0516 12.6715 16.3836 16.7136 12.8495 18.5622C12.2578 18.8721 11.7384 18.8829 11.1493 18.5568C8.14264 16.8807 6.63528 14.2183 6.11855 10.8903C6.05429 10.4699 6.02752 10.0441 6.00342 9.81777ZM11.1547 13.709C10.5737 13.0622 10.0891 12.5395 9.62323 11.9978C9.22698 11.5397 8.92176 11.7149 8.5737 12.0706C8.23635 12.4155 8.03287 12.7038 8.47999 13.1296C9.24037 13.8545 9.97932 14.6009 10.6995 15.3662C11.0556 15.7435 11.318 15.757 11.6875 15.3743C13.0583 13.9623 14.4425 12.5637 15.8508 11.1894C16.3086 10.7421 16.2283 10.4403 15.8187 10.0253C15.4064 9.61027 15.1145 9.61297 14.7156 10.036C13.5938 11.2244 12.4452 12.3805 11.1547 13.709Z" fill="#004F9E" />
</svg>
