<svg width="24" height="24" viewBox="0 0 24 24" fill="none" xmlns="http://www.w3.org/2000/svg">
  <path d="M19.2 10.4C20.1928 10.4 21 9.59281 21 8.6C21 7.60719 20.1928 6.8 19.2 6.8C18.2072 6.8 17.4 7.60719 17.4 8.6C17.4 9.59281 18.2072 10.4 19.2 10.4ZM4.8 11.75C3.80719 11.75 3 12.5572 3 13.55C3 14.5428 3.80719 15.35 4.8 15.35C5.79281 15.35 6.6 14.5428 6.6 13.55C6.6 12.5572 5.79281 11.75 4.8 11.75ZM17.445 10.7038L16.905 9.98375L15.555 10.9963L16.095 11.7163L17.445 10.7038ZM19.2 15.8C18.795 15.8 18.4237 15.9406 18.1228 16.1656L15.4228 14.5456C15.5297 14.2306 15.6 13.8988 15.6 13.5472C15.6 11.8063 14.1909 10.3972 12.45 10.3972C12.2137 10.3972 11.9831 10.4281 11.7638 10.4788L10.6162 8.02063C10.9144 7.7 11.1 7.2725 11.1 6.8C11.1 5.80719 10.2928 5 9.3 5C8.30719 5 7.5 5.80719 7.5 6.8C7.5 7.79281 8.30719 8.6 9.3 8.6C9.33094 8.6 9.35906 8.59156 9.39 8.59156L10.5431 11.0609C9.79219 11.6347 9.3 12.5319 9.3 13.55C9.3 15.2909 10.7091 16.7 12.45 16.7C13.3528 16.7 14.16 16.3147 14.7338 15.7072L17.4281 17.3244C17.4141 17.4144 17.4 17.5072 17.4 17.6C17.4 18.5928 18.2072 19.4 19.2 19.4C20.1928 19.4 21 18.5928 21 17.6C21 16.6072 20.1928 15.8 19.2 15.8ZM12.45 14.9C11.7047 14.9 11.1 14.2953 11.1 13.55C11.1 12.8047 11.7047 12.2 12.45 12.2C13.1953 12.2 13.8 12.8047 13.8 13.55C13.8 14.2953 13.1953 14.9 12.45 14.9ZM7.275 14H8.625V13.1H7.275V14Z" fill="#5FD5F9" />
</svg>
