<svg width="24" height="24" viewBox="0 0 24 24" fill="none" xmlns="http://www.w3.org/2000/svg">
  <path d="M20.8967 13.1279L18.6334 17.0078C18.4573 17.3097 18.2051 17.5602 17.902 17.7343C17.5989 17.9084 17.2555 18 16.9059 18H4.40703C3.82819 18 3.46753 17.3721 3.75919 16.8721L6.02244 12.9923C6.19857 12.6903 6.45076 12.4398 6.75388 12.2657C7.05699 12.0916 7.40045 12 7.75 12H20.2489C20.8277 12 21.1884 12.6279 20.8967 13.1279ZM7.75 11H18V9.5C18 8.67156 17.3284 8 16.5 8H11.5L9.5 6H4.5C3.67156 6 3 6.67156 3 7.5V16.1889L5.15866 12.4884C5.69419 11.5703 6.68716 11 7.75 11Z" fill="#FF9435" />
</svg>
