<svg width="24" height="24" viewBox="0 0 24 24" fill="none" xmlns="http://www.w3.org/2000/svg">
<path fillRule="evenodd" clipRule="evenodd" d="M20 8V19.59L16.17 15.75C16.69 14.96 17 14.02 17 13C17 10.24 14.76 8 12 8C9.24 8 7 10.24 7 13C7 15.76 9.24 18 12 18C13.02 18 13.96 17.69 14.76 17.17L19.19 21.6C18.85 21.85 18.45 22 18 22H5.99C4.89 22 4 21.1 4 20L4.01 4C4.01 2.9 4.9 2 6 2H14L20 8ZM12 16C10.34 16 9 14.66 9 13C9 11.34 10.34 10 12 10C13.66 10 15 11.34 15 13C15 14.66 13.66 16 12 16Z" fill=""/>
</svg>
