<svg width="24" height="24" viewBox="0 0 24 24" fill="none" xmlns="http://www.w3.org/2000/svg">
<path d="M12 2C6.48 2 2 6.48 2 12C2 17.52 6.48 22 12 22C17.52 22 22 17.52 22 12C22 6.48 17.52 2 12 2ZM12 3.96C16.08 3.96 19.46 7 19.94 11H16V11.05L14.04 13.05L11.79 9.18L11.8 9.17L10.75 7.38L9.34 8.79L9.35 8.78L7.12 11H4.06C4.54 7 7.92 3.96 12 3.96ZM12 19.98C7.94 19.98 4.61 16.95 4.1 13.03L8 13.04V13.03L10.42 10.59C13.09 15.17 12.41 14 13.7 16.22L16.91 13H19.93C19.41 17 16.06 19.98 12 19.98Z" />
</svg>
