<svg width="28" height="28" viewBox="0 0 28 28" xmlns="http://www.w3.org/2000/svg">
<path d="M26 23V8.35294C26 7.80066 25.5523 7.35294 25 7.35294H14.3966C14.1418 7.35294 13.8967 7.25573 13.7112 7.08114L11.7888 5.2718C11.6033 5.09721 11.3582 5 11.1034 5H3C2.44772 5 2 5.44772 2 6V7.52941V23C2 23.5523 2.44772 24 3 24H25C25.5523 24 26 23.5523 26 23Z" fill="none" stroke-width="2"/>
<path d="M12.122 17.71H9.47195L9.03195 19H7.23195L9.82195 11.98H11.792L14.382 19H12.562L12.122 17.71ZM11.682 16.41L10.802 13.81L9.91195 16.41H11.682ZM16.9566 16.52V19H15.2466V11.93H18.0166C18.8566 11.93 19.4966 12.14 19.9366 12.56C20.3766 12.9733 20.5966 13.5333 20.5966 14.24C20.5966 14.68 20.4966 15.0733 20.2966 15.42C20.1033 15.76 19.8133 16.03 19.4266 16.23C19.04 16.4233 18.57 16.52 18.0166 16.52H16.9566ZM17.8266 15.15C18.5133 15.15 18.8566 14.8467 18.8566 14.24C18.8566 13.62 18.5133 13.31 17.8266 13.31H16.9566V15.15H17.8266Z"/>
</svg>
