<svg width="18" height="18" viewBox="0 0 18 18" fill="none" xmlns="http://www.w3.org/2000/svg">
<path d="M13.3729 4.34899C12.9289 3.90508 12.2698 3.83841 11.7402 4.11217C10.91 3.64587 9.98117 3.37465 9.00228 3.37465C7.74858 3.37522 6.531 3.79468 5.54296 4.5664C4.55492 5.33812 3.85306 6.41785 3.54887 7.63409C3.24467 8.85033 3.35559 10.1333 3.86399 11.2793C4.37239 12.4253 5.24914 13.3686 6.35496 13.9593C7.46078 14.55 8.73227 14.7543 9.96748 14.5397C11.2027 14.3251 12.3308 13.704 13.1726 12.7749C14.0144 11.8459 14.5216 10.6622 14.6137 9.41184C14.7058 8.16152 14.3775 6.91628 13.6809 5.87389C13.7853 5.61762 13.8118 5.33623 13.757 5.06497C13.7023 4.79371 13.5686 4.54465 13.3729 4.34899ZM12.1848 12.1818C10.4859 13.8814 7.5187 13.8814 5.81973 12.1818C5.19029 11.5525 4.76163 10.7506 4.58798 9.87757C4.41432 9.00457 4.50346 8.09967 4.84414 7.27734C5.18481 6.45501 5.76171 5.75218 6.50186 5.25775C7.24202 4.76331 8.11217 4.49949 9.00228 4.49964C9.72457 4.49964 10.412 4.68724 11.0372 5.00639C10.9219 5.46939 11.0215 5.97572 11.3836 6.33772C11.5705 6.52247 11.8056 6.65079 12.0621 6.70797C12.3186 6.76515 12.586 6.74887 12.8337 6.661C13.3655 7.51908 13.5909 8.53205 13.4731 9.53469C13.3552 10.5373 12.9011 11.4704 12.1848 12.1818ZM15.3715 2.63568C14.0618 1.32372 12.3783 0.449167 10.5518 0.132036C8.72537 -0.185095 6.84553 0.0707311 5.17025 0.86441C5.18571 0.879242 5.20398 0.889129 5.21916 0.904304C5.47333 1.1626 5.67959 1.46401 5.82832 1.79447C7.36327 1.11181 9.07655 0.938832 10.717 1.3009C12.3574 1.66297 13.8387 2.54104 14.9437 3.80639C16.0487 5.07173 16.7193 6.65779 16.8571 8.33204C16.995 10.0063 16.5928 11.6807 15.7096 13.1097C15.2754 12.9145 14.7853 12.8821 14.3291 13.0183C13.8729 13.1546 13.481 13.4505 13.2249 13.8519C12.9689 14.2534 12.8658 14.7335 12.9346 15.2047C13.0034 15.6758 13.2394 16.1065 13.5995 16.418C13.9596 16.7295 14.4198 16.901 14.8959 16.9012C15.372 16.9013 15.8324 16.7302 16.1927 16.419C16.5531 16.1078 16.7894 15.6773 16.8586 15.2062C16.9277 14.7351 16.825 14.2549 16.5693 13.8533C18.8116 10.3691 18.4225 5.68438 15.3715 2.63568ZM14.9102 15.7496C14.7434 15.7496 14.5802 15.7001 14.4415 15.6073C14.3028 15.5146 14.1947 15.3828 14.1309 15.2286C14.067 15.0744 14.0504 14.9048 14.083 14.7411C14.1155 14.5775 14.1959 14.4272 14.3139 14.3092C14.4319 14.1912 14.5823 14.1109 14.7459 14.0783C14.9096 14.0458 15.0792 14.0625 15.2334 14.1264C15.3876 14.1903 15.5193 14.2984 15.612 14.4371C15.7047 14.5759 15.7542 14.739 15.7542 14.9059C15.7542 15.1297 15.6652 15.3443 15.507 15.5025C15.3487 15.6608 15.134 15.7497 14.9102 15.7496ZM12.1263 16.229C10.9279 16.7468 9.61954 16.9588 8.3189 16.8457C7.01827 16.7327 5.76611 16.2982 4.67498 15.5814C3.58385 14.8646 2.68795 13.8878 2.06781 12.739C1.44767 11.5901 1.12274 10.3052 1.12221 8.99964C1.12221 7.52322 1.5519 6.1228 2.30866 4.89707C2.74471 5.09036 3.23567 5.12062 3.69215 4.98235C4.14863 4.84407 4.54027 4.54646 4.79577 4.1437C5.05126 3.74095 5.15362 3.25982 5.0842 2.78794C5.01479 2.31606 4.77821 1.8848 4.41755 1.57268C4.05689 1.26056 3.59613 1.08835 3.11917 1.08739C2.64221 1.08643 2.18076 1.2568 1.81885 1.56747C1.45694 1.87814 1.21864 2.30845 1.14733 2.78005C1.07602 3.25165 1.17645 3.73318 1.43033 4.13696C-0.815783 7.62147 -0.41803 12.3135 2.6343 15.3636C3.93853 16.6702 5.61376 17.5431 7.4319 17.8634C9.25003 18.1837 11.1227 17.9359 12.795 17.1537C12.772 17.1322 12.7452 17.1173 12.7228 17.0949C12.4755 16.8429 12.2737 16.5499 12.1263 16.229H12.1263ZM3.09434 2.24965C3.26121 2.24969 3.42432 2.29922 3.56304 2.39196C3.70176 2.4847 3.80987 2.61649 3.87369 2.77067C3.93752 2.92485 3.95419 3.0945 3.92161 3.25815C3.88903 3.42181 3.80865 3.57213 3.69064 3.6901C3.57263 3.80808 3.42229 3.88841 3.25862 3.92095C3.09496 3.95349 2.92532 3.93676 2.77116 3.8729C2.617 3.80903 2.48523 3.70088 2.39253 3.56213C2.29983 3.42338 2.25035 3.26026 2.25035 3.0934C2.25037 2.98258 2.27221 2.87285 2.31463 2.77047C2.35705 2.66809 2.41923 2.57507 2.4976 2.49672C2.57597 2.41838 2.66901 2.35623 2.7714 2.31384C2.87379 2.27144 2.98352 2.24963 3.09434 2.24965ZM9.00228 6.18714C8.44606 6.1873 7.90237 6.35239 7.43996 6.66153C6.97756 6.97066 6.6172 7.40997 6.40445 7.9239C6.1917 8.43783 6.13612 9.00331 6.24473 9.54882C6.35334 10.0943 6.62127 10.5954 7.01464 10.9887C7.40801 11.3819 7.90915 11.6497 8.4547 11.7582C9.00025 11.8666 9.56571 11.8109 10.0796 11.598C10.5934 11.3851 11.0327 11.0246 11.3417 10.5621C11.6507 10.0996 11.8156 9.55586 11.8156 8.99964C11.8146 8.25387 11.5179 7.53894 10.9905 7.01168C10.4631 6.48442 9.74805 6.18789 9.00228 6.18714ZM9.00228 10.6871C8.66855 10.687 8.34233 10.588 8.06489 10.4025C7.78745 10.217 7.57123 9.95344 7.44358 9.64508C7.31593 9.33672 7.28259 8.99744 7.34775 8.67013C7.41292 8.34282 7.57368 8.04218 7.8097 7.80623C8.04572 7.57027 8.3464 7.4096 8.67373 7.34453C9.00106 7.27946 9.34034 7.3129 9.64866 7.44064C9.95698 7.56838 10.2205 7.78467 10.4059 8.06217C10.5913 8.33966 10.6903 8.6659 10.6903 8.99964C10.6902 9.22128 10.6466 9.44074 10.5617 9.64549C10.4769 9.85025 10.3525 10.0363 10.1958 10.193C10.039 10.3497 9.85295 10.474 9.64817 10.5588C9.44339 10.6435 9.22392 10.6872 9.00228 10.6871Z"/>
</svg>
