<svg width="24" height="24" viewBox="0 0 24 24" fill="none" xmlns="http://www.w3.org/2000/svg">
<path d="M15.3333 12C15.3333 13.8359 13.8359 15.3333 12 15.3333C10.1641 15.3333 8.66667 13.8359 8.66667 12C8.66667 10.1641 10.1641 8.66667 12 8.66667C13.8359 8.66667 15.3333 10.1641 15.3333 12ZM22 10.5807C22 10.3594 21.8438 10.151 21.6224 10.112L19.2396 9.7474C19.1094 9.31771 18.9271 8.88802 18.7057 8.47135C19.1484 7.85938 19.6302 7.28646 20.0729 6.6875C20.138 6.59635 20.1771 6.50521 20.1771 6.38802C20.1771 6.28385 20.151 6.17969 20.0859 6.10156C19.5391 5.33333 18.6276 4.52604 17.9375 3.88802C17.8464 3.8099 17.7292 3.75781 17.612 3.75781C17.4948 3.75781 17.3776 3.79688 17.2995 3.875L15.4505 5.26823C15.0729 5.07292 14.6823 4.91667 14.2786 4.78646L13.9141 2.39063C13.888 2.16927 13.6797 2 13.4453 2H10.5547C10.3203 2 10.138 2.15625 10.0859 2.36458C9.8776 3.14583 9.79948 3.99219 9.70833 4.78646C9.30469 4.91667 8.90104 5.08594 8.52344 5.28125L6.72656 3.88802C6.6224 3.8099 6.50521 3.75781 6.38802 3.75781C5.94531 3.75781 4.1875 5.65885 3.875 6.08854C3.8099 6.17969 3.75781 6.27083 3.75781 6.38802C3.75781 6.50521 3.8099 6.60938 3.88802 6.70052C4.36979 7.28646 4.83854 7.8724 5.28125 8.4974C5.07292 8.88802 4.90365 9.27865 4.77344 9.69531L2.35156 10.0599C2.15625 10.099 2 10.3333 2 10.5286V13.4193C2 13.6406 2.15625 13.849 2.3776 13.888L4.76042 14.2396C4.89063 14.6823 5.07292 15.112 5.29427 15.5286C4.85156 16.1406 4.36979 16.7135 3.92708 17.3125C3.86198 17.4036 3.82292 17.4948 3.82292 17.612C3.82292 17.7161 3.84896 17.8203 3.91406 17.9115C4.46094 18.6667 5.3724 19.474 6.0625 20.099C6.15365 20.1901 6.27083 20.2422 6.38802 20.2422C6.50521 20.2422 6.6224 20.2031 6.71354 20.125L8.54948 18.7318C8.92708 18.9271 9.31771 19.0833 9.72135 19.2135L10.0859 21.6094C10.112 21.8307 10.3203 22 10.5547 22H13.4453C13.6797 22 13.862 21.8438 13.9141 21.6354C14.1224 20.8542 14.2005 20.0078 14.2917 19.2135C14.6953 19.0833 15.099 18.9141 15.4766 18.7188L17.2734 20.125C17.3776 20.1901 17.4948 20.2422 17.612 20.2422C18.0547 20.2422 19.8125 18.3281 20.125 17.9115C20.2031 17.8203 20.2422 17.7292 20.2422 17.612C20.2422 17.4948 20.1901 17.3776 20.112 17.2865C19.6302 16.7005 19.1615 16.1276 18.7188 15.4896C18.9271 15.112 19.0833 14.7214 19.2266 14.3047L21.6354 13.9401C21.8438 13.901 22 13.6667 22 13.4714V10.5807Z"/>
</svg>
